<?xml version="1.0" encoding="utf-8"?>
<!-- Generator: Adobe Illustrator 24.0.0, SVG Export Plug-In . SVG Version: 6.00 Build 0)  -->
<svg version="1.0" id="Layer_1" xmlns="http://www.w3.org/2000/svg" xmlns:xlink="http://www.w3.org/1999/xlink" x="0px" y="0px"
	 viewBox="0 0 78.7 82.2" style="enable-background:new 0 0 78.7 82.2;" xml:space="preserve">
<g>
	<path d="M69.4,22.1c3,1.8,5.2,4,7.3,6.4c1.2,1.4,1.4,3.2,1.1,5.1c-0.1,0.7-0.2,1.5-0.5,2.1c-0.9,2.1-0.9,4,0.6,5.9
		c0.8,1.1,1.1,2.5,0.7,3.9c-0.3,1.2-0.6,2.5-0.7,3.8c-0.2,1.9-1.1,3.2-2.9,3.8c-0.5,0.2-0.9,0.4-1.3,0.6c-0.1,0.8,0.4,1.3,0.7,1.8
		c0.6,1.4,0.8,2.8,0.4,4.3c-0.8,3.1-2.3,5.8-5.1,7.4c-1.5,0.9-2.4,2.2-3,3.7c-1.1,2.8-3.1,4-6,4c-0.7,0-1.5,0.1-2.2,0.1
		c-3.4-0.1-6.5-0.8-7.8-4.8c-0.6,0.6-0.7,1.2-0.9,1.8c-0.6,1.6-1.2,3.2-2,4.7c-1.2,2.1-2.9,3.3-5.3,3.2c-1.8-0.1-3.3,0.4-4.9,1.3
		c-1.9,1.1-4,1-6.1,0.4c-3.9-1.2-7.5-2.8-10.6-5.6c-4.3-4-5-9.2-1.5-13.9c0.5-0.6,1-1.2,1.7-2.2c-2.5,0.6-4.6,1.2-6.8,0.8
		c-5.8-0.9-9.5-4.3-11.5-9.7c-0.8-2.3-1.5-4.6-2.2-7C-0.3,42.5,0,40.9,1,39.5c0.9-1.3,1.8-2.5,2.8-3.7c2.1-2.5,3.6-5.1,4.1-8.4
		c0.5-3.3,2.3-4.6,5.7-4.4c5.5,0.3,10.1,2.7,13.9,6.7c1.4,1.5,2.8,3,4.2,4.4c1.5,1.4,3.2,2.4,5.4,3c-0.5-1.4-1.2-2.2-1.9-3
		c-2.3-2.7-4.7-5.4-7-8.1c-2.6-3.1-4.3-6.7-5.2-10.6c-0.6-2.5-0.1-4.7,1.9-6.4c2.3-2,4.7-4.1,7.1-6c1.4-1.1,3-1.5,4.8-1
		c1.2,0.3,2.3,0.7,3.5,1.1c2.4,0.9,4.6,0.8,6.8-0.6c0.9-0.6,1.9-1,2.8-1.5c2.6-1.3,5.1-1.2,7.4,0.5c1.8,1.3,3.7,2.3,5.9,2.5
		c2.2,0.2,3.7,1.7,4.5,3.7c0.5,1.2,0.7,2.5,1.1,3.7c0.3,1.2,0.5,2.4,1.1,3.5C71,17.4,71.2,19.8,69.4,22.1z M51.3,18.9
		c-1.2,6.3-2.5,12.6-6.2,18.7c1.3-0.6,1.7-1.2,2.2-1.8c3.3-3.5,5.4-7.7,7.3-12c0.3-0.7,0.4-1.7,1.6-2.3C55.7,24,54.6,26,53.7,28
		c-1,2.2-2.2,4.2-3.6,6.1c-1.3,1.7-3,3.2-4.4,4.9c2.3-0.5,4.1-1.6,5.8-3c3.7-3,7.4-6.1,11.1-9.2c2-1.7,3.7-3.6,5.2-5.8
		c1-1.6,1.3-3.1,0.4-4.8c-1-2-1.6-4.1-2.1-6.2c-0.2-0.9-0.6-1.9-1-2.7c-0.6-1.2-1.5-2-2.8-2.1C59.8,5,57.9,4,56.1,2.6
		c-1.6-1.2-3.3-1.3-5-0.5c-1.1,0.5-2.2,1.1-3.3,1.6c-2.3,1.2-4.7,1.3-7.1,0.5c-1.2-0.4-2.3-0.8-3.4-1.3c-1.7-0.7-3.2-0.4-4.5,0.8
		c-2.1,1.8-4.1,3.7-6.2,5.5c-1.9,1.7-2.3,3.8-1.6,6.2c0.8,2.6,1.9,5,3.6,7.2c1.9,2.5,4.1,4.8,6.2,7.2c1.7,1.9,3.3,3.8,4.5,6.1
		c0.2,0.5,0.2,1.2,1,1.2c0.2-1.2,0.1-2.4-0.1-3.6c-0.8-4.9-2.6-9.6-3.8-14.4c-0.1-0.6-0.5-1.1,0-2.1c0.7,2.1,1.3,4,1.8,5.8
		c0.6,1.9,1,3.8,1.6,5.6c0.6,1.7,0.6,3.7,1.6,5.3c0.7-6,1.3-12,0.8-18c0-0.5,0-1.1,0.6-1.2c0.7-0.1,0.7,0.5,0.7,1
		c-0.1,4.3,0.2,8.6-0.2,12.9c-0.3,3.6-0.7,7.2-1.6,10.8c0.7-0.1,1-0.5,1.3-0.8C47.5,32.5,48.8,25.5,51.3,18.9z M15.6,45.5
		c5.5,0,17-3.2,19.8-5.8c-3.7,0.3-7.1,0.3-10.5-0.6c-4.5-1.1-7.7-2.7-9.1-4.8c1.8,0.9,3.4,2.1,5.3,2.8c1.8,0.7,3.7,1.2,5.6,1.6
		c3.4,0.7,4.6,0.8,5.9,0.2c-4.5-1.3-8.4-3.5-12-6.8c1.1,0,1.4,0.5,1.9,0.8c3.6,2.7,7.6,4.7,11.9,5.9c0.7,0.2,1.7,1.1,2.1,0.2
		c0.5-0.9-1.2-0.8-1.4-1.7c0,0-0.1-0.1-0.2-0.1c-3.5-1.4-6-4.1-8.6-6.7c-3.1-3-6.7-5.2-10.9-6c-3.8-0.8-5.3,0.3-5.8,3.9
		c-0.4,2.7-1.5,4.9-3.3,7c-1.3,1.5-2.4,3.1-3.6,4.6c-0.9,1.2-1.1,2.5-0.6,3.9c0.9,2.4,1.7,4.9,2.6,7.4c0.6,1.6,1.5,3.1,2.6,4.4
		c3.6,4.2,9.4,5,14,2.1c1-0.6,1.9-1.4,2.9-1.8c5.4-2.4,7.2-7.6,9.7-12.2c-3.7,2.3-7.2,5-11.5,6.2c1.1-0.9,2.4-1.6,3.6-2.3
		c1.3-0.7,2.5-1.5,3.7-2.3c1.1-0.8,2.3-1.4,3.1-2.6c-2.9,0.7-5.6,1.7-8.5,2.3C21.4,45.5,18.5,46.5,15.6,45.5z M35.2,46.1
		c-0.6,0.4-0.7,0.4-0.7,0.4c-0.2,0.3-0.3,0.6-0.5,0.8c-2.5,5-5.6,9.5-10.2,12.8c-1.1,0.8-2,1.7-2.7,2.8c-2,3.1-2.8,6.5-1,9.7
		c1.9,3.2,4.7,5.6,8.3,6.8c1.2,0.4,2.5,0.7,3.7,1.2c1.6,0.7,3.2,0.6,4.7-0.3c1.7-1,3.4-1.5,5.4-1.3c1.4,0.1,2.6-0.4,3.4-1.6
		c2.5-3.9,4.1-8.2,2.9-12.9c-1.2-4.6-2.5-9.1-4.2-13.5c-0.8-2.1-1.9-4-3.5-5.7c-0.3,0.5-0.1,0.8,0,1.1c1,4.7,1.7,9.4,1.1,14.2
		c-0.3,2.7-0.8,5.5-1.2,8.2c-0.1,0.4-0.2,0.8-0.7,0.8c-0.6-0.1-0.5-0.6-0.4-1c0.2-1.9,0.4-3.7,0.6-5.6c0.6-5.8,0.4-11.5-0.8-17.2
		c-0.1-0.5,0-1.2-1.1-1.1c0.3,2.6,0.3,5.2,0,7.8c-0.3,2.6-0.8,5.1-1.4,7.7c-0.6,2.4-1,5-2.5,7.1c-0.3-2.1,0.7-3.9,1-5.8
		c0.3-2,0.8-4,1.1-6c0.3-2,0.5-4,0.7-6.1c0.1-1.9,0.1-3.9-0.2-5.8c-1.5,7.6-6.6,19.8-9.7,22C30.1,59.1,33.7,53.2,35.2,46.1z
		 M45,45.2c5,4.6,9.9,9.3,13.3,15.3c-3.5-3.5-6.7-7.3-10.5-10.6c3.1,4.5,5.7,9.2,8.5,13.9c0.2,0.4,0.4,0.9,0.5,1.3
		c0,0-0.1,0.1-0.1,0.2c-0.2,0.2-0.2-0.2-0.2,0.6c-3.3-5.9-6.6-11.2-10.7-16.7c0,0.7-0.1,0.9,0,1C48.9,55.8,50,62,51.6,68
		c1.3,4.9,2.6,6.2,7.8,6.2c0.2,0,0.5,0,0.7,0c2.6,0.1,4.3-0.9,5.3-3.4c0.6-1.6,1.6-3,3.2-3.9c2.6-1.4,3.9-3.9,4.7-6.6
		c0.6-1.8,0.4-3.7-0.7-5.4c-0.6-0.9-1.2-1.7-1.7-2.7c-1.2-2.4-3.3-3.5-5.8-4c-2.2-0.4-4.4-1-6.5-2c-3.6-1.9-7.5-1.5-11.8-1.9
		c0.9,1,1.7,1.2,2.3,1.6c3.6,2,7.1,4.3,10.4,6.8c0.7,0.6,1.5,1.1,1.8,2.6C56.2,51,50.8,47.9,45,45.2z M56.6,44.3
		c3,1.3,6,2.7,9.2,3.2c2.7,0.5,4.9,1.7,6.2,4.2c0.8,1.5,1.1,1.5,2.6,0.6c0.9-0.5,1.5-1.2,1.6-2.3c0.2-1.7,0.5-3.4,0.7-5
		c0.2-1.2,0-2.3-0.7-3.3c-1.5-1.9-1.4-3.8-0.8-6c0.9-3.5,0.2-6.6-2.5-9.1c-0.7-0.7-1.3-1.4-2-2.1c-1.2-1.3-1.4-1.4-2.8-0.3
		c-1.8,1.4-3.5,2.9-5.3,4.3c-2.9,2.3-6,4.5-8.8,6.9c-2.7,2.3-5.7,4-9.1,5.1c-0.7,0.2-1.4,0.5-2.1,0.7c-0.3,0.1-0.5,0.4-0.5,0.8
		c0,0.4,0.3,0.5,0.6,0.6c1.7,0.5,3.4,1,5.2,1c0.4,0,0.8,0.1,0.9-0.5c-0.7-0.7-1.9,0.2-2.8-0.9c5.2-0.3,10-2,15-2.1
		c-3.6,0.9-7.2,1.7-10.8,2.6c2.9,0.8,5.8,1,9.2,0.9C58.5,44.3,57.5,43.7,56.6,44.3z M39,42.8c0.4-0.1,0.5-0.3,0.5-0.7
		c-0.1-0.3-0.3-0.5-0.7-0.5c-0.5,0-0.4,0.3-0.4,0.6C38.4,42.6,38.6,42.8,39,42.8z"/>
	<path d="M40.6,12.5c-1.3-1.5-1.6-2.6-1.8-4.9C39.9,8.9,39.9,8.9,40.6,12.5z"/>
	<path d="M58.5,11.6c-0.4,1.6-1.2,3-2.1,4.6C56.2,14.4,56.6,13.6,58.5,11.6z"/>
	<path d="M54.9,8.5c-0.1,2.2-0.6,3.6-1.8,4.7C53.3,11.6,53.8,10.2,54.9,8.5z"/>
	<path d="M31.6,15.9c-1.2-0.8-1.8-2-2.3-3.4C30.5,13.3,30.8,14.8,31.6,15.9z"/>
	<path d="M34.5,13.5c-0.8-1.2-1.5-2.4-2.3-3.6C33.7,10.6,34.3,11.9,34.5,13.5z"/>
	<path d="M46.2,8.1c0.6,0.8,0.9,1.7,0.8,3C45.9,10.1,46.1,9.1,46.2,8.1z"/>
	<path d="M63.2,17.7c-0.6,0.8-1.2,1.7-2.6,1.5c0.8-0.6,1.5-1.3,2.3-1.9C63,17.5,63.1,17.6,63.2,17.7z"/>
	<path d="M58.6,16.7c0.4-0.8,0.8-1.4,1.5-2C59.8,16.2,59.8,16.2,58.6,16.7z"/>
	<path d="M16.4,53.5c-1.2,0.9-2.5,1.3-4.4,1.1C13.6,53.7,15,53.7,16.4,53.5z"/>
	<path d="M11,40.9c-1.1-0.1-2.2-0.2-3.5-1.1C9.1,39.8,10,40.5,11,40.9z"/>
	<path d="M10.5,44.2c-1.2,0.4-2.1,0-3.4-0.4C8.6,43.3,9.5,44.3,10.5,44.2z"/>
	<path d="M9.4,49.2c0.9-0.4,1.5-0.2,2.5,0C10.9,49.8,10.3,49.6,9.4,49.2z"/>
	<path d="M15,30.6c-0.7-0.2-1.2-0.5-1.5-1.4C14.4,29.3,14.6,30,15,30.6z"/>
	<path d="M34.3,74.8c-0.5-1.1-0.2-2.2,0.2-3.2C35.2,72.8,35,73.8,34.3,74.8z"/>
	<path d="M43,72c0.5,0.1,0.7,0.4,0.7,0.9c0,0.5,0,1.2-0.7,1.2c-0.4,0-0.4-0.4-0.4-0.7C42.4,72.8,42.3,72.2,43,72z"/>
	<path d="M39.3,73.7c-0.1,0.4,0.1,1.1-0.6,1c-0.6-0.1-0.5-0.8-0.5-1.2c0-0.4,0.2-0.9,0.6-0.9C39.4,72.6,39.3,73.2,39.3,73.7z"/>
	<path d="M25.2,68.9c-0.5,0.9-1.1,1.7-1.9,3c-0.1-1.8,1-2.4,1.4-3.3C24.9,68.7,25.1,68.8,25.2,68.9z"/>
	<path d="M28,74.6c0-0.2-0.1-0.3-0.1-0.4c0.2-0.5,0.4-0.9,0.8-1.2c0.1-0.1,0.3,0,0.3,0.2c0,0.5-0.4,0.9-0.7,1.2
		C28.3,74.5,28.2,74.5,28,74.6z"/>
	<path d="M27.1,70.1c0.2,0.6-0.3,0.8-0.6,1.1c-0.4-0.4,0.1-0.7,0.3-0.9C26.8,70.2,26.9,70.2,27.1,70.1z"/>
	<path d="M62.5,61.9c1.3,0.3,1.8,1.4,2.9,2.2C64.1,64,64.1,64,62.5,61.9z"/>
	<path d="M57.4,70.7c-0.7-1-1.2-2-0.5-3.5C57.7,68.5,57.4,69.6,57.4,70.7z"/>
	<path d="M61,67.3c-0.8-0.3-1-0.9-1.2-1.6c0.2-0.3,0.5-0.2,0.6,0C60.8,66.2,61.2,66.6,61,67.3z"/>
	<path d="M66.8,59.9c-0.7,0.1-1-0.2-1.3-0.4c-0.2-0.2-0.5-0.3-0.5-0.8C65.9,58.6,66.3,59.2,66.8,59.9z"/>
	<path d="M47.6,40.3c5.4-1.9,10.6-4.5,15.9-7.8C61,35.4,51.7,39.9,47.6,40.3z"/>
	<path d="M69.1,41.4c1.2-0.3,2.5-0.6,3.8,0.2C70.4,42,70.4,42,69.1,41.4z"/>
	<path d="M71.5,36.6c-1,0.9-1.9,1.1-2.9,1C69.4,37,70.2,36.7,71.5,36.6z"/>
	<path d="M70.9,31.9c-0.7,0.6-1.5,1.1-3,1.3C69.1,32.2,69.9,31.8,70.9,31.9z"/>
	<path d="M71.2,29.4c-0.9,1-1.8,1.4-3.3,1.7C69,30,69.8,29.5,71.2,29.4z"/>
	<path d="M69.7,46.2c1-0.3,1.6-0.1,2.2,0.5C71.1,46.9,70.6,46.6,69.7,46.2z"/>
</g>
</svg>
