<?xml version="1.0" encoding="utf-8"?>
<!-- Generator: Adobe Illustrator 24.0.0, SVG Export Plug-In . SVG Version: 6.00 Build 0)  -->
<svg version="1.0" id="Layer_1" xmlns="http://www.w3.org/2000/svg" xmlns:xlink="http://www.w3.org/1999/xlink" x="0px" y="0px"
	 viewBox="0 0 41.1 53.9" style="enable-background:new 0 0 41.1 53.9;" xml:space="preserve">
<style type="text/css">
	.st0{fill:#41AB34;}
</style>
<path class="st0" d="M12.2,8.7c3.5-9.7,7.2-11.1,13-5.1c1.5-0.8,2.9-1.9,4.6-2.5c3.4-1.3,6.5-0.5,9.2,1.8c2.5,2.2,2.5,5.1,1.7,8.1
	c-0.7,2.3-1.7,4.4-3,6.4c-1.8,2.8-4,5.2-6.4,7.5c-7.1,7.1-7.2,7.2-3.8,16.8c1.2,3.4,2,7.1,4.7,9.8c0.6,0.6,1,1,0.4,1.8
	c-0.5,0.7-1.3,0.7-2,0.6c-1.6-0.2-2.6-1.4-3.4-2.6c-2.8-4.5-5.6-9.1-6.6-14.4c-0.6-2.9-1.7-4.4-4.5-5.4C9.8,29,5.3,24.4,2.1,18.7
	C0.4,15.6-1.2,12,1.2,8.9c2.6-3.3,6.3-1.9,9.6-0.6C11.1,8.4,11.5,8.5,12.2,8.7z"/>
</svg>
