<?xml version="1.0" encoding="utf-8"?>
<!-- Generator: Adobe Illustrator 24.0.0, SVG Export Plug-In . SVG Version: 6.00 Build 0)  -->
<svg version="1.0" id="Layer_1" xmlns="http://www.w3.org/2000/svg" xmlns:xlink="http://www.w3.org/1999/xlink" x="0px" y="0px"
	 viewBox="0 0 193.6 211.3" style="enable-background:new 0 0 193.6 211.3;" xml:space="preserve">
<g id="x64Tfd_1_">
	<g>
		<path d="M153.2,150.1c0.5-0.2,1.1-0.4,1.6-0.6c0.1,0,0.3-0.1,0.4-0.1c1.3-0.8,2.6-1.7,3.9-2.6c0.4-0.3,0.9-0.5,1.2-1
			c0.1-0.3,0.2-0.5,0.4-0.9c0.7,0,1.2-0.6,1.5-1.2c0.8-1.4,1.5-2.9,2.2-4.3c0.6-1.3,1.1-2.8,1.7-4.1c1.1-2.4,2-4.8,2.6-7.3
			c0.4-1.6,0.8-3.2,1.2-4.9c0.4-1.7,0.8-3.5,1.1-5.2c0.1-0.6,0.1-1.3,0.1-2c0-0.9,0.1-1.9,0.1-2.8c0.1-1.3,0.2-2.7,0.2-4
			c0-2.8,0-5.5,0-8.3c0-1.1-0.3-2.1-0.4-3.2c-0.1-0.4-0.1-0.8-0.1-1.2c0-0.3-0.1-0.6-0.3-1c0,0.1-0.1,0.2-0.1,0.3
			c-0.1,1.5-0.6,2.8-1.1,4.2c-0.6,1.4-1.1,2.9-1.6,4.3c-0.7,1.8-1.4,3.5-2.5,5.2c-0.3,0.5-0.3,1.2-0.6,1.8c-0.3,0.7-0.8,1.4-1.2,2
			c-0.2,0.3-0.5,0.3-0.8,0.1c-0.3-0.1-0.3-0.4-0.2-0.6c0.2-0.7,0.4-1.4,0.7-2c0.2-0.4,0.7-0.7,1-1c0.2-0.2,0.5-0.4,0.7-0.6
			c1-1.4,1.7-2.9,2.3-4.5c0.6-1.4,1-2.9,1.5-4.4c0.2-0.6,0.5-1.2,0.7-1.8c0.3-0.9,0.4-1.9,0.6-2.9c0-0.2,0.1-0.4,0.2-0.6
			c0.1-0.2,0.2-0.5,0.2-0.7c0-1.8,0-3.6-0.5-5.4c-0.1-0.2-0.1-0.4-0.3-0.7c-0.3,0.6-0.6,1-0.8,1.5c-0.9,1.4-2.1,2.5-3.2,3.6
			c-0.6,0.6-1.3,1.2-1.9,1.9c-0.3,0.3-0.4,0.7-0.4,1.1c-0.3,1.4-0.5,2.7-1.1,4c-0.1,0.2,0,0.6,0,0.9c0,0.7,0.1,1.4-0.4,2
			c-0.2,0.2-0.3,0.4-0.7,0.4c-0.3-0.1-0.4-0.3-0.5-0.6c-0.2-0.7,0-1.6,0.7-2.1c0.4-0.2,0.6-0.6,0.7-1c0.3-1,0.6-2.1,0.9-3.2
			c0-0.1,0-0.2-0.1-0.3c-0.1,0.1-0.3,0.1-0.4,0.2c-1.2,1.3-2.3,2.6-3.5,3.9c-0.4,0.5-0.7,1-0.7,1.7c-0.1,1.1-0.8,1.9-1.6,2.5
			c-0.3,0.2-0.6,0.2-0.9,0c-0.3-0.2-0.2-0.5-0.1-0.7c0.1-0.9,0.5-1.5,1-2.2c0.1-0.2,0.4-0.3,0.6-0.4c0.5-0.3,1-0.6,1.3-1
			c1.7-1.8,3.2-3.6,4.9-5.4c1.2-1.2,2.4-2.4,3.5-3.7c0.9-1,1.7-2.1,2.2-3.3c0.2-0.4,0.2-0.8,0-1.3c-1.1-3-2.2-6-3.3-8.9
			c-0.8-1.9-1.6-3.8-2.6-5.7c-1-2.1-2.2-4.1-3.4-6c-0.8-1.2-1.8-2.2-2.7-3.3c-1.1-1.3-2.3-2.6-3.5-3.9c-0.4-0.4-0.8-0.9-1.3-1.3
			c-1.6-1.4-3.1-2.9-4.7-4.2c-1.5-1.2-3.1-2.3-4.9-3.2c-0.9-0.5-1.9-0.9-2.8-1.4c-1.4-0.7-2.9-1.3-4.3-2c-2.7-1.1-5.4-2.2-8.1-3.3
			c-1.1-0.4-2.3-0.7-3.4-1.1c-1.5-0.4-3-0.9-4.5-1.3c-0.7-0.2-1.4-0.3-2.2-0.4c-1.9-0.3-3.8-0.6-5.7-0.8c-2.2-0.3-4.3-0.6-6.5-0.8
			c-0.8-0.1-1.7,0-2.5,0c-1.7,0-3.4,0-5.1,0.1c-1.6,0.1-3.2,0.2-4.7,0.4c-1.5,0.2-2.9,0.3-4.4,0.5c-0.9,0.1-1.8,0.3-2.7,0.5
			c-0.4,0.1-0.8,0.1-1.1,0.2c-0.7,0.2-1.5,0.3-2.2,0.6c-1.9,0.7-3.8,1.4-5.7,2.1c0,0-0.1,0.1-0.2,0.1c0.3,1.2,1.2,2.4,0.5,3.8
			c0.1-1.1-0.4-2.1-0.8-3.2c-0.6,0.6-1,1.3-1.3,2c-0.1,0.2,0,0.4,0.1,0.6c0.6,1.2,0,3.4-1.5,3.9c-0.6,0.2-1.1,0-1.2-0.7
			c-0.2-1,0.2-1.9,1-2.6c0.6-0.6,1.1-1.2,1.4-2c0.1-0.5,0.5-0.9,0.7-1.3c-0.1,0-0.2-0.1-0.3-0.1c-2.4,1-4.8,2.1-6.8,3.8
			c-1,0.8-1.8,1.7-2.2,3c-0.4,1.3-1.1,2.3-2.2,3.1c-1.3,1-2.6,2.1-3.8,3.2c-0.2,0.2-0.4,0.5-0.6,0.8c-0.1,0.2-0.3,0.3-0.4,0.4
			c-0.1,0-0.1,0-0.2-0.1c0-0.2,0-0.4,0.1-0.6c0.5-1.1,1-2.3,1.6-3.3c0.8-1.3,1.6-2.6,3-3.5c0.6-0.3,1.2-0.6,1.7-0.9
			c0.3-0.2,0.6-0.3,0.8-0.5c1.4-1.6,3.2-2.7,5-3.8c1.4-0.8,2.9-1.5,4.4-2.1c2.4-1,4.8-1.9,7.2-2.9c0.4-0.2,0.8-0.2,1.3-0.3
			c1.4-0.3,2.8-0.6,4.2-0.8c2.2-0.2,4.3-0.6,6.4-0.8c3.4-0.4,6.8-0.2,10.3-0.3c0.2,0,0.4,0,0.7,0c1.7,0.2,3.5,0.4,5.2,0.6
			c2,0.3,4,0.4,6,0.9c0.7,0.2,1.3,0.3,2,0.4c1.7,0.2,3.4,0.7,5,1.3c1.3,0.4,2.6,0.8,3.9,1.2c1.4,0.5,2.7,1.1,4,1.6
			c0.7,0.3,1.5,0.6,2.2,0.9c0.4,0.1,0.7,0.3,1.1,0.4c2.5,1.2,5,2.3,7.5,3.5c1.6,0.7,3.1,1.6,4.5,2.7c1,0.7,1.9,1.6,2.9,2.4
			c1,0.8,1.9,1.7,2.8,2.5c0.5,0.5,1.1,1,1.6,1.5c0.1,0,0.1-0.1,0.2-0.1c-0.1-0.2-0.2-0.4-0.3-0.5c-0.8-0.9-1.7-1.8-2.5-2.7
			c-1.8-2-3.6-4.1-5.4-6.1c-0.9-1-1.8-1.9-2.8-2.7c-0.7-0.6-1.6-1-2.6-1.1c-1.5-0.1-2.9-0.6-4.1-1.6c-0.5-0.4-0.8-0.9-1.1-1.5
			c-0.7-1.3-1.4-2.7-2.3-3.9c-0.8-1-2.1-1.4-3.4-1.8c0,0.6,0.1,1.1,0,1.6c-0.1,0.7-0.6,0.9-1.1,0.4c-0.2-0.2-0.4-0.5-0.5-0.8
			c-0.1-0.5-0.2-1.1-0.2-1.7c0-0.3-0.1-0.5-0.4-0.6c-0.1,0-0.3,0-0.4-0.1c-1-0.8-2.2-1-3.3-1.4c-0.4-0.2-0.9-0.3-1.3-0.4
			c-0.9-0.3-1.9-0.4-2.8-0.8c-1.1-0.4-2.2-0.7-3.4-1c-1.3-0.3-2.6-0.8-3.9-0.9c-1.9,0-3.6-0.7-5.4-1c-2.1-0.3-4.2-0.4-6.4-0.3
			c0.1,0.6-0.2,0.9-0.8,0.9c-1.5,0.1-2.9,0.1-4.2-0.6c-0.4-0.2-0.8-0.3-1.3-0.3c-2.1,0.1-4.2,0.2-6.3,0.4c-1.3,0.1-2.7,0.4-4.2,0.7
			c0.3,0.2,0.4,0.3,0.5,0.4c1.2,0.5,2.4,1,3.8,1c0.2,0,0.4,0.2,0.5,0.3c-0.1,0.2-0.2,0.4-0.4,0.5c-1.1,0.5-2.3,0.8-3.6,0.5
			c-0.5-0.1-1.1-0.2-1.6-0.4c-0.8-0.2-1.5-0.5-2.1-1.1c-0.4-0.4-0.8-0.5-1.4-0.3c-2.6,0.9-5.3,1.7-7.9,2.6c-1.8,0.6-3.5,1.4-5.3,2.2
			c0.5,0.2,0.9,0.2,1.4,0c0.8-0.2,1.6-0.4,2.4-0.7c0.3-0.1,0.5,0,0.6,0.3c-2.5,3-5.2,3.9-9.1,2.8c-0.5-0.2-1-0.1-1.5,0.1
			c-4.1,1.8-7.8,4.1-11.4,6.7c-2,1.5-3.9,3-5.7,4.7c-1.8,1.7-3.6,3.5-5.2,5.3c-1.4,1.5-2.6,3.2-4,4.8c-1.2,1.4-2.2,3-3.2,4.5
			c-1,1.5-1.8,3-2.7,4.6c-1.1,2-2.3,4-3.3,6c-0.8,1.5-1.5,3.1-2.3,4.6c-0.3,0.7-0.5,1.4-0.7,2.1c-0.2,0.5-0.4,1-0.6,1.4
			c-0.9,1.9-1.6,3.8-2.1,5.8c-0.3,1.1-0.5,2.2-0.7,3.4c-0.1,0.7-0.3,1.3-0.4,2c-0.5,2.4-0.8,4.8-0.8,7.2c0,1.3-0.2,2.6-0.1,3.9
			c0,2,0.2,4,0.3,6.1c0.1,1.7,0.2,3.3,0.4,5c0,0.4,0.1,0.8,0.2,1.3c0.3-0.3,0.4-0.6,0.4-0.9c0-1.5,0.5-2.9,0.8-4.3
			c0.5-2.2,1.1-4.3,1.7-6.4c0.2-0.7,0.4-1.3,0.5-2c0.1-0.2,0.1-0.6,0-0.7c-0.3-0.4-0.2-0.9-0.3-1.4c0-0.7-0.1-1.4,0-2.1
			c0.1-0.9,0.3-1.7,0.5-2.6c0.1-0.4,0.3-0.8,0.4-1.3c0-0.2,0-0.4,0-0.5c-0.1-0.6-0.1-1.2,0.2-1.7c0.4-0.6,0.7-1.2,1.1-1.8
			c0.4-0.5,0.8-0.5,1.1,0.1c0.1,0.3,0.1,0.6,0,0.9c-0.4,0.8-0.9,1.5-1.3,2.3c-0.2,0.3-0.3,0.5-0.5,0.8c-0.8,2-1.1,4.2-0.9,6.3
			c0,0.1,0.1,0.1,0.1,0.3c0.1-0.2,0.3-0.3,0.3-0.4c1-2.6,2.2-5.2,3.7-7.6c0.8-1.3,1.5-2.7,2.2-4.1c0.1-0.2,0.2-0.5,0.2-0.8
			c0.1-1.2,0.1-2.5,0.2-3.7c0.1-0.9,0.3-1.8,0.4-2.8c0-0.3,0.1-0.7,0-1c-0.4-1.5,0.1-2.7,0.8-4c0.1-0.1,0.3-0.3,0.4-0.3
			c0.1,0,0.3,0.2,0.4,0.4c0.1,0.1,0.1,0.2,0.1,0.3c0.1,1.2,0.1,2.5-0.5,3.6c-0.2,0.3-0.4,0.5-0.7,0.9c-0.2,1.8-0.4,3.7-0.5,5.6
			c0.5,0.1,0.5-0.2,0.7-0.4c1-1.8,1.9-3.6,2.9-5.3c0.8-1.4,1.8-2.7,2.7-4.1c0.1-0.2,0.3-0.4,0.3-0.7c0.1-1.2,0.3-2.5,0.4-3.7
			c0-0.6-0.1-1.1-0.2-1.7c-0.2-0.7,0-1.5,0-2.3c0-0.3,0.2-0.6,0.2-1c0-0.4,0.2-0.6,0.6-0.6c0.3,0,0.6,0.2,0.7,0.4
			c0.2,0.5,0.5,1.1,0.3,1.7c-0.1,0.3-0.1,0.7-0.1,1c-0.1,0.5-0.2,1-0.6,1.4c-0.3,0.3-0.4,0.6-0.4,1c0.1,0.9,0,1.8-0.4,2.7
			c0,0.1,0,0.2,0,0.5c2.1-2.2,3.8-4.5,5.8-6.6c-0.4-0.7,0-1.2,0.5-1.6c0.9-0.8,1.9-1.4,3.1-1.4c0.5,0.8,0.5,1-0.1,1.5
			C44,71.1,43.1,71.7,42,72c-0.5,0.1-1,0.7-1.4,1.1c-1.4,1.6-2.9,3.3-4.2,5c-0.8,1-1.4,2.1-2.1,3.1c-0.3,0.5-0.7,1-1.1,1.4
			c-0.1,0.1-0.2,0.3-0.3,0.5c0.2,0,0.3,0,0.4-0.1c1.4-0.6,2.9-1,4.5-1c0.4,0,0.7-0.2,1.1-0.3c0.4-0.2,0.8-0.4,1.1-0.6
			c0.6-0.3,1.1-0.8,1.4-1.4c0.5-0.9,1.4-1.5,2.4-1.9c0.2-0.1,0.5,0,0.6,0.2c0.1,0.2,0.1,0.5,0,0.7c-0.9,0.9-1.7,1.9-3.1,2.2
			c-0.7,0.2-1.4,0.7-2.1,1.1c0.6,0.5,0.7,0.6,1.4,0.2c0.8-0.5,1.5-0.3,2.3,0c0.3,0.1,0.6,0.4,0.5,0.8c0,0.3-0.4,0.6-0.8,0.7
			c-0.8,0-1.5,0-2.2-0.5c-0.6-0.4-1.3-0.4-2-0.5c-0.4,0-0.7,0-1.1,0c-1.8,0-3.4,0.5-4.9,1.6c-0.2,0.1-0.4,0.3-0.5,0.6
			c-0.7,1.2-1.3,2.4-2,3.6c-0.6,1.1-1.3,2.2-1.9,3.2c-0.6,0.9-1.1,1.9-1.6,2.8c0,0.1-0.1,0.2-0.1,0.5c0.6-0.3,1-0.6,1.4-0.8
			c1.7-0.8,3.3-1.8,4.8-3c0.4-0.3,0.7-0.6,0.8-1.1c0.3-0.6,0.7-1,1.3-1.3c0.2-0.1,0.4-0.1,0.6-0.1c0.4,0,0.6,0.4,0.4,0.8
			c-0.5,0.7-0.9,1.5-1.9,1.5c-0.2,0-0.4,0.2-0.7,0.3c-0.6,0.4-1.2,0.8-1.8,1.3c-0.1,0.1-0.2,0.2-0.4,0.5c1.6,0.1,3,0,4.4-0.3
			c0.2,0,0.3-0.1,0.4-0.2c0.7-0.7,1.5-0.6,2.3-0.5c0.5,0,0.6,0.6,0.3,1c-0.6,0.7-1.7,1-2.5,0.5c-0.4-0.2-0.7-0.2-1.1-0.2
			c-1.6,0.1-3.2,0.2-4.8,0.4c-0.2,0-0.5,0.1-0.7,0.2c-1,0.6-2.1,1.1-3.1,1.7c-0.2,0.1-0.4,0.4-0.5,0.6c-0.5,0.9-1.1,1.8-1.5,2.8
			c-0.8,1.7-1.5,3.4-2.1,5.2c-0.6,1.8-1,3.6-1.4,5.5c0,0.1,0,0.2,0,0.3c0,0,0.1,0.1,0.1,0.1c1.2-0.5,2.1-1.4,3-2.3
			c0.2-0.2,0.5-0.4,0.8-0.6c0,0,0,0,0,0c-0.2,0.3-0.4,0.6-0.6,0.8c-0.9,1.1-1.9,2-3.3,2.6c-0.2,0.1-0.3,0.3-0.4,0.5
			c-0.2,0.9-0.5,1.9-0.7,2.8c-0.1,0.6-0.3,1.2-0.4,1.8c-0.1,0.5-0.2,0.9-0.2,1.4c-0.2,1.2-0.4,2.3-0.5,3.5c-0.1,0.8-0.1,1.7,0,2.5
			c0.2,1.7,0.5,3.4,0.9,5.1c0.8,3.1,1.5,6.2,2.9,9.1c0.5,1.1,0.8,2.3,1.3,3.4c0.7,1.5,1.3,3.1,2.1,4.6c1,2,2,4,3.1,5.9
			c0.6,1.1,1.3,2.2,2,3.3c0.3,0.5,0.6,1,0.9,1.5c0.1,0.1,0.1,0.2,0.2,0.3c0.3-0.4,0.1-0.7,0.1-1c0-0.2,0-0.3,0.1-0.5
			c0,0,0.3,0,0.4,0c0.1,0.1,0.2,0.3,0.2,0.5c0,0.3-0.2,0.5-0.2,0.8c-0.2,0.7,0.1,1.4,0.5,1.9c0.6,0.8,1.2,1.6,1.9,2.3
			c1,1,1.9,2.1,2.8,3.1c0.4,0.5,0.9,1.1,1.3,1.6c0.6,0.9,1.4,1.6,2.2,2.3c0.1,0.1,0.2,0.1,0.4,0.2c-0.2-0.6-0.3-1-0.4-1.4
			c-0.2-0.4,0-0.6,0.3-0.8c0.1,0.2,0.3,0.3,0.3,0.5c0.1,0.7,0.2,1.4,0.3,2.1c0,0.2,0.2,0.4,0.4,0.8c0.2-0.5,0.4-0.8,0.5-1.1
			c0.2-0.5,0.3-1,0.4-1.5c0.1-0.3,0-0.5,0-0.8c0-0.3,0-0.5,0.4-0.5c0.1,0.6,0.1,1.2-0.1,1.8c-0.2,0.8-0.4,1.6-0.7,2.4
			c-0.1,0.4-0.1,0.8,0.3,1.1c1.5,1.5,3.2,2.9,4.9,4.2c0.4,0.3,0.8,0.7,1.2,1c1,0.9,2,1.6,3.2,2.2c0.9,0.5,1.7,1,2.5,1.6
			c1.2,0.8,2.3,1.6,3.7,2.1c0.8,0.3,1.5,0.7,2.2,1c1.4,0.4,2.6,1.1,3.9,1.7c1,0.5,2,1.1,3.1,1.5c1.3,0.6,2.7,1,4.1,1.3
			c0.8,0.1,1.5,0.5,2.3,0.6c1.1,0.2,2.2,0.4,3.2,0.7c1.8,0.5,3.7,0.7,5.6,1c0.6,0.1,1.3,0.3,1.9,0.4c1.8,0.3,3.6,0.5,5.4,0.7
			c1.7,0.2,3.5,0.3,5.2,0.5c0.3,0,0.6,0,1,0c1.5,0,3,0,4.4-0.1c1.8,0,3.6-0.1,5.3-0.2c0.8,0,1.7-0.2,2.5-0.3c2.4-0.3,4.7-0.8,7-1.5
			c2.3-0.7,4.5-1.4,6.8-2c2.3-0.5,4.4-1.6,6.5-2.6c2.4-1.1,4.8-2.3,7-3.7c0.2-0.1,0.4-0.2,0.7-0.3c0.2-0.1,0.4-0.2,0.6-0.4
			c-0.5-0.5-1.4-0.5-1.9-0.1c-0.8,0.7-2.3,0.8-3.1,0.3c-0.6-0.3-0.6-1,0-1.3c0.9-0.6,1.8-0.7,2.7-0.1c0.5,0.3,1,0.3,1.5,0.4
			c0.3,0,0.7,0.1,0.9,0.2c0.5,0.2,1,0.2,1.4-0.1c1-0.6,2.1-1.2,3.1-1.9c1.6-1,3.1-2.1,4.7-3.2c1.9-1.4,3.8-2.7,5.7-4.2
			c1.8-1.4,3.6-2.9,5-4.7c1.5-1.9,3-3.7,4.5-5.5c0.9-1.2,1.5-2.6,2-3.9c0.7-1.9,1.3-3.8,2.3-5.6c0.6-1.2,1-2.5,1.6-3.7
			c0.3-0.7,0.7-1.5,1.1-2.2c0.7-1.3,1.5-2.5,1.9-3.9c0.3,0.2,0.4,0.4,0.4,0.7c-0.1,1.5-0.4,3-0.9,4.4c-0.3,1-0.6,2-1.1,2.8
			c-1,1.7-2.1,3.4-3.2,5.1c-0.6,0.9-1.2,1.8-1.5,2.9c-0.5,1.6-1.4,3.1-2.5,4.4c-0.6,0.8-1.2,1.5-1.8,2.2c-0.3,0.3-0.5,0.7-0.6,1.2
			c-0.4,1.5-0.8,3-1.2,4.4c-0.2,0.7-0.5,1.3-0.8,2.1c2.4-0.2,4.3,0.7,5.9,2.4c0.1,0.1,0.2,0.4,0.2,0.6c0,0-0.1,0.1-0.1,0.1
			c-0.2-0.1-0.4-0.1-0.5-0.2c-0.2-0.2-0.5-0.5-0.6-0.8c-0.5-0.9-1.4-1.2-2.3-1.5c-0.4-0.1-0.7-0.2-1.1-0.3c-0.1,0-0.3,0-0.6,0
			c0.3,0.2,0.4,0.4,0.6,0.5c0.6,0.3,0.9,0.9,1.2,1.4c0.2,0.4,0.4,0.9-0.2,1.3c-0.1-0.2-0.3-0.3-0.3-0.4c-0.1-1.3-0.9-1.9-2-2.5
			c0,0.2-0.1,0.4-0.1,0.5c0.7,0.9,0.6,2,0.8,3c0,0.1-0.1,0.3-0.2,0.4c-0.2-0.1-0.4-0.1-0.4-0.2c-0.1-0.2-0.1-0.5-0.2-0.8
			c-0.1-0.5-0.1-0.9-0.2-1.4c0-0.2-0.2-0.4-0.4-0.6c-0.3,1.1-0.8,2.2-0.6,3.3c0,0.2,0.1,0.4,0,0.6c-0.1,0.2-0.2,0.3-0.4,0.5
			c-0.1-0.1-0.4-0.3-0.4-0.4c0-0.7,0.1-1.3,0.3-2c0.1-0.4,0.2-0.9,0.2-1.3c-0.5,0.4-0.8,0.9-1,1.5c-0.2,0.4-0.3,0.8-0.5,1.1
			c-0.1,0.1-0.3,0.2-0.4,0.2c-0.1,0-0.2-0.2-0.2-0.4c0-0.1,0-0.2,0.1-0.3c0.6-1,1.2-2,1.9-2.8c0.7-0.9,1-1.9,1.4-2.9
			c0.4-1.2,0.7-2.4,1-3.6c0-0.2,0-0.4,0-0.6c-0.2,0.2-0.3,0.2-0.4,0.4c-0.9,1.3-2.1,2.4-3.3,3.4c-2,1.6-4,3.2-6,4.7
			c-1.4,1.1-3,2.1-4.4,3.1c-0.3,0.2-0.6,0.5-0.8,0.9c-1.2,1.8-2.5,3.5-4,5c-0.4,0.4-0.6,0.7-0.5,1.4c0.1,1.1-0.1,2.1-0.5,3.1
			c-0.2,0.5-0.5,1-0.7,1.6c-0.1,0.3-0.3,0.7-0.2,1c0,0.6-0.2,1.1-0.5,1.5c-0.1,0.2-0.4,0.4-0.7,0.6c-0.4,0.2-0.7,0.1-1-0.2
			c-0.3-0.2-0.4-0.5-0.2-0.9c0.2-0.7,0.7-1.2,1.3-1.4c0.5-0.2,0.7-0.5,0.9-0.9c0.3-0.7,0.6-1.4,0.8-2.1c0.3-0.8,0.2-1.6,0.2-2.4
			c-0.2,0-0.3,0-0.4,0c-1.1,0.8-2.2,1.7-3.2,2.5c-0.7,0.5-1.3,1.1-1.9,1.7c-1.6,1.5-3.2,2.9-4.8,4.3c-0.3,0.3-0.5,0.5-0.6,0.9
			c-0.3,0.8-0.6,1.7-1,2.4c-0.7,1.3-1.3,2.7-2.3,3.8c-0.3,0.3-0.5,0.5-0.8,0.8c-0.3,0.3-0.8,0.6-0.8,1.1c-1,1.4-2,2.7-3.7,3.2
			c-0.3,0.1-0.6,0.1-0.7-0.2c-0.1-0.2-0.1-0.5,0-0.7c0.4-0.8,1-1.4,1.8-1.8c0.5-0.2,1-0.5,1.5-0.7c1-0.3,1.7-1.1,2.3-1.8
			c1.2-1.5,2.2-3.2,2.9-5c0.1-0.2,0.2-0.5,0.3-0.7c0,0,0,0-0.1-0.1c-0.1,0-0.2,0-0.3,0c-1.1,1-2.5,1.5-3.8,2.2
			c-0.3,0.2-0.7,0.4-1,0.6c-0.4,0.2-0.6,0.5-0.6,0.8c0,0.8-0.5,1.3-1,1.8c-0.6,0.7-1.3,1.3-2.2,1.4c-0.3,0-0.6,0.1-0.8,0
			c-0.7-0.1-0.9-0.6-0.5-1.2c0.9-1.3,2-2.4,3.7-2.7c0.1,0,0.3,0,0.4-0.1c1.1-0.9,2.5-1.2,3.6-1.9c1-0.6,2-1.3,2.9-2
			c1.5-1.3,2.9-2.6,4.3-4c1.2-1.2,2.6-2.2,3.9-3.3c1.1-0.9,2.2-1.7,3.3-2.6c0.6-0.5,1.2-1.1,1.6-2c-0.6-0.2-1.1-0.4-1.6-0.5
			c-0.3,0-0.6,0.1-0.9,0.2c-2.1,1.1-4.1,2.2-6.1,3.3c-1.3,0.7-2.6,1.2-3.9,1.9c-1.1,0.5-2.2,1.1-3.3,1.4c-1.5,0.4-3,0.9-4.6,1.4
			c-0.7,0.2-1.5,0.5-2.2,0.7c-1.8,0.5-3.5,1-5.3,1.4c-1.5,0.3-3.1,0.5-4.6,0.7c-0.1,0-0.3,0-0.4,0.1c-1,0.4-2,0.7-2.9,1.2
			c-0.8,0.4-1.7,0.7-2.4,1.2c-0.2,0.1-0.4,0.2-0.4,0.3c0,0.8,0,1.6,0,2.3c0,0.2,0,0.3-0.1,0.5c-0.1,0.2-0.3,0.4-0.5,0.2
			c-0.1-0.1-0.2-0.4-0.1-0.5c0.5-0.6,0.3-1.4,0.3-2.1c-0.7,0.1-1.1,0.4-1.6,0.8c-0.1,0.1-0.1,0.4-0.1,0.5c0,0.6,0,1.2,0,1.7
			c0,0.5-0.2,0.5-0.8,0.2c0.4-0.6,0.4-1.2,0.3-2c-0.2,0.1-0.4,0.2-0.5,0.3c-0.4,0.5-0.7,0.9-1.1,1.4c-0.4,0.5-0.8,0.6-1.3,0.2
			c0.1-0.5,0.5-0.9,0.9-1.1c0.7-0.3,1-0.9,1.7-1.3c-0.3-0.5-0.6-0.5-1-0.5c-0.4,0-0.7-0.1-0.6-0.6c0.6-0.3,1.1,0,1.5,0.3
			c0.5,0.4,0.8,0.4,1.2,0c0.2-0.2,0.5-0.3,0.8-0.5c-0.5-0.4-0.9-0.7-1.3-1c0.3-0.3,0.6-0.2,0.8,0c0.9,0.9,0.8,0.9,2.2,0
			c0.1,0,0.1-0.1,0.2-0.1c-0.1-0.3-0.3-0.2-0.5-0.2c-0.4,0.1-0.5,0-0.5-0.5c0.2,0,0.4,0,0.6,0c1,0.2,1.9,0.1,2.8-0.4
			c0.1,0,0.1-0.1,0.2-0.1c0,0,0,0,0-0.1c-0.1,0-0.3-0.1-0.4,0c-2,0.3-4,0.1-6,0.2c-0.9,0-1.8,0-2.7,0c-0.6,0-1.3-0.1-1.9-0.2
			c-0.8-0.1-1.6-0.1-2.5-0.2c-0.9-0.1-1.8-0.2-2.7-0.3c-0.5-0.1-0.8,0.1-1,0.5c-2.2,3.3-4.7,6.2-7.7,8.8c-1.6,1.4-3.5,2.6-5.2,3.9
			c-0.2,0.2-0.5,0.3-0.6,0.5c-1.1,1.1-2.3,2.1-3.6,2.8c-2.3,1.3-4.6,2.6-7.1,3.4c-1.3,0.4-2.6,0.7-4,1c-0.3,0.1-0.6,0-0.9,0
			c0-0.1,0-0.1,0-0.2c0.1-0.1,0.2-0.2,0.3-0.3c0.8-0.2,1.4-0.9,1.9-1.5c0.6-0.9,1.5-1.5,2.3-2.2c1.5-1.2,3.1-2.3,4.9-3
			c1.6-0.7,3.3-1,5-0.5c0.4,0.1,0.8,0.1,1.2-0.2c0.9-0.6,1.9-1.1,2.8-1.8c1.8-1.3,3.5-2.6,5-4.3c1.9-2.2,3.9-4.3,5.5-6.7
			c0,0,0-0.1,0.1-0.2c-0.8-0.4-1.6-0.5-2.5,0c-1.5,0.8-2.9,1.5-4.5,2.2c-0.8,0.4-1.6,0.6-2.5,0.8c-0.5,0.2-1.1,0.3-1.6,0.4
			c-1.8,0.5-3.7,0.8-5.6,1c-0.8,0.1-1.6,0.3-2.4,0.6c-2.1,0.7-4.2,0.8-6.3,0.5c-1.2-0.2-2.4-0.2-3.7-0.5c-1-0.2-2-0.5-2.6-1.5
			c-0.1-0.2-0.2-0.4-0.3-0.7c-0.2-0.8-0.1-1.2,0.6-1.5c0.8-0.3,1.6-0.6,2.4-0.7c1.9-0.2,3.8,0.2,5.6,0.8c1,0.3,2,0.6,3,1
			c0.7,0.3,1.4,0.5,2,0.9c0.8,0.5,1.7,0.6,2.6,0.5c2.5-0.2,4.8-0.8,7.2-1.5c2-0.6,3.8-1.6,5.6-2.7c-0.2-0.1-0.3-0.2-0.5-0.2
			c-1.5-0.3-3.1-0.5-4.6-0.8c-0.4-0.1-0.7-0.2-1.1-0.2c-1.6-0.3-3.2-0.7-4.7-1.1c-1.5-0.4-3.1-0.7-4.6-1.2c-1-0.3-2-0.7-2.9-1.1
			c-0.7-0.3-1.4-0.7-2.1-1c-2.1-1.1-4.3-1.8-6.4-2.8c-1.2-0.5-2.2-1.3-3.2-2.1c-1-0.8-2.1-1.3-3.2-2c-0.9-0.6-1.8-1.1-2.6-1.8
			c-1.5-1.2-3-2.5-4.6-3.8c-0.1-0.1-0.3-0.2-0.5-0.2c-0.7-0.2-1.4-0.4-2.1-0.6c-0.1,0.1-0.2,0.3-0.2,0.4c-0.5,1-1.1,2-1.6,2.9
			c-0.2,0.4-0.3,0.4-0.8,0c1.8-2.5,2-2.8,1.9-3.5c-0.5,0.4-0.9,0.8-1.4,1.1c-0.9,0.7-1.9,1.2-3,1.4c-0.3,0.1-0.5,0.1-0.6-0.2
			c-0.1-0.4,0.2-0.5,0.5-0.5c1.5,0,2.5-1.1,3.7-1.8c0.1,0,0.1-0.1,0.1-0.3c-1,0.1-2,0.2-3,0.3c0-0.1,0-0.2,0-0.2
			c0.7-0.5,1.6-0.4,2.4-0.5c0-0.1,0.1-0.2,0.1-0.2c-0.1,0-0.2,0-0.3-0.1c-2.1-1-4-2.4-5.8-3.8c-1.2-0.9-2.4-2-3.6-3
			c-0.4-0.4-0.8-0.8-1.1-1.2c-0.3-0.3-0.5-0.3-0.7,0c-1.1,1.4-2.7,2-4.2,2.7c-0.8,0.4-1.7,0.6-2.6,0.5c-0.2,0-0.4-0.1-0.5-0.4
			c0-0.3,0.3-0.5,0.5-0.4c0.6,0.5,1.2,0.2,1.8,0.1c1.4-0.4,2.6-1.1,3.8-1.9c0,0,0-0.1,0-0.2c-0.6,0-1.2,0.1-1.8,0.1
			c-0.8,0-1.7,0-2.5,0c-0.3,0-0.7-0.1-1-0.1c-0.5-0.1-0.6-0.3-0.2-0.9c2.2,1.1,4.3,0.5,6.5,0c-0.1-0.5-0.3-0.5-0.6-0.4
			c-0.7,0.3-1.4,0.3-2.1,0.1c-1.1-0.2-2.3-0.4-3.4-0.8c-0.8-0.2-1.6-0.7-2.3-1c-0.3-0.1-0.6-0.2-0.8-0.3c-0.4-0.1-0.4-0.4-0.3-0.8
			c0.2,0,0.4,0,0.5,0.1c1.9,1.1,3.9,1.9,6.1,2c0.5,0,0.9,0.1,1.4,0.1c0.2,0,0.4-0.1,0.7-0.2c-0.1-0.2-0.1-0.4-0.2-0.5
			c-2.5-2.9-4.9-5.8-7.2-8.9c-0.4-0.5-0.6-1-1-1.5c-0.3-0.4-0.7-0.9-1.1-1.4c-1.2,0.8-2.5,0.6-3.7,0.5c-1.1-0.1-2.2-0.5-3.3-0.8
			c-0.4-0.1-0.8-0.2-1.2-0.4c0.1-0.4,0.2-0.6,0.5-0.4c1.3,0.6,2.7,0.8,4,1c0.6,0.1,1.3,0,1.9,0c-0.1-0.3-0.4-0.4-0.7-0.5
			c-0.6-0.2-1.1-0.3-1.7-0.5c-1.1-0.3-2-1.1-3-1.7c-0.1,0-0.2-0.1-0.2-0.1c0-0.2,0-0.3,0-0.5c0.2,0,0.5,0,0.5,0.1
			c0.2,0.5,0.7,0.7,1.1,1c0.7,0.5,1.4,0.8,2.2,1c0.5,0.1,1,0.4,1.5,0.5c0.6,0.1,1.1,0.2,1.8,0.3c0-0.6-0.3-0.9-0.7-0.8
			c-0.4,0.1-0.6-0.1-0.9-0.2c-1.3-0.5-2.4-1.5-3.5-2.3c-0.3-0.2-0.6-0.3-0.8-0.6c-0.1-0.1-0.2-0.4-0.1-0.5c0.1-0.2,0.4-0.2,0.6-0.1
			c0.6,0.5,1.1,1.2,1.8,1.7c0.8,0.6,1.7,1,2.6,1.5c0.1,0,0.2,0,0.4-0.1c-0.1-0.2-0.2-0.5-0.3-0.6c-1.6-2.5-3.2-4.9-4.7-7.4
			c-1-1.7-1.9-3.5-2.8-5.2c-0.3-0.5-0.6-0.9-0.8-1.3c-1.1,0.2-2,0.3-2.9,0.4c-1,0.1-2,0.2-3-0.1c-0.5-0.2-1.1-0.1-1.7-0.1
			c-0.5,0-0.5-0.1-0.4-0.7c0,0,0.1-0.1,0.1-0.1c1.3,0.7,2.8,0.4,4.2,0.4c0.9,0,1.7-0.2,2.6-0.3c0.1,0,0.2-0.1,0.4-0.2
			c-0.1-0.1-0.1-0.2-0.2-0.2c-0.9,0-1.7-0.5-2.4-0.9c-0.7-0.4-1.3-0.8-2-1.1c-0.2-0.1-0.4-0.2-0.5-0.4c-0.1-0.1,0-0.4,0.1-0.5
			c0.1-0.1,0.4,0,0.5,0c0.7,1.3,2.2,1.3,3.2,2.1c0.1,0,0.2,0,0.2,0c0.1,0,0.1,0,0.3-0.1c-0.2-0.2-0.4-0.4-0.6-0.6
			c-1-0.7-1.7-1.6-2.3-2.5c-0.1-0.1-0.2-0.3-0.2-0.4c0-0.2,0.1-0.4,0.3-0.4c0.1,0,0.3,0.1,0.4,0.2c0,0,0,0.1,0,0.1
			c-0.1,0.9,0.6,1.3,1.1,1.8c0.5,0.5,1.1,0.9,1.7,1.5c0.3-0.6-0.3-0.9-0.3-1.3c0-0.4-0.2-0.9-0.3-1.3c-0.1-0.4-0.7-0.7-0.4-1.2
			c0.4-0.1,0.6,0.1,0.6,0.4c0.2,0.7,0.4,1.5,0.7,2.2c0.1,0.4,0,0.8,0.6,1.1c-0.1-1.3,0.3-2.5-0.2-3.6c-0.1-0.2-0.2-0.5-0.2-0.7
			c0-0.1,0.1-0.2,0.2-0.3c0.1,0.1,0.3,0.1,0.4,0.2c0.2,0.6,0.3,1.2,0.4,1.8c0.2,0.8,0,1.6-0.1,2.4c0,0.2,0,0.3,0,0.5
			c0.9-0.4,1.6-2.6,1.4-4.3c0.2,0,0.4-0.1,0.6-0.1c0.1,1.1-0.1,2.1-0.5,3c-0.4,0.9-1,1.7-1.4,2.5c0.9-0.7,1.5-1.7,2.2-2.6
			c0.7-0.9,1.2-2,1.3-3.2c0.4-0.2,0.5,0,0.5,0.3c-0.1,0.4-0.2,0.9-0.4,1.3c-0.7,1.6-1.8,3.1-3,4.4c-0.2,0.2-0.3,0.3-0.5,0.4
			c0.5,1.8,6.8,12.5,8.9,14.9c0.5-1,0.1-2,0-2.9c-0.1-1-0.4-2-1.3-2.8c0.2-0.1,0.3-0.3,0.5-0.4c0.1,0,0.3,0.2,0.4,0.3
			c0.4,0.8,0.8,1.7,0.9,2.6c0,0.4,0,0.8,0.4,1.2c0.1-0.2,0.1-0.3,0.1-0.4c0-1,0.1-1.9,0.1-2.9c0-0.3-0.1-0.6-0.2-0.9
			c-0.1-0.3-0.2-0.6,0-0.9c0.5,0,0.5,0.4,0.5,0.7c0,1,0.1,1.9,0,2.9c0,0.8,0,1.5-0.1,2.3c0.1-0.1,0.3-0.2,0.4-0.3
			c0.4-1,1.1-1.8,1.2-2.9c0-0.1,0.2-0.3,0.3-0.4c0.1,0,0.4,0.1,0.4,0.1c0.1,0.2,0.1,0.5,0,0.6c-0.5,0.6-0.6,1.4-1,2.1
			c-0.5,0.9-0.9,1.8-1.6,2.4c-0.4,0.3-0.3,0.6-0.1,1c0.8,1.2,1.6,2.4,2.4,3.5c0.9,1.2,1.8,2.3,2.8,3.5c1.4,1.7,2.8,3.4,4.2,5
			c0.1,0.1,0.2,0.3,0.3,0.6c0.2-0.3,0.3-0.4,0.2-0.4c-0.2-1-0.4-1.9-0.9-2.8c-0.2-0.3-0.5-0.6-0.8-0.9c-0.2-0.2-0.3-0.4-0.1-0.6
			c0.2-0.2,0.4-0.1,0.5,0.2c1,1.2,1.6,2.5,1.8,4.1c0,0.1,0.1,0.3,0.1,0.6c0.2-0.3,0.3-0.5,0.3-0.6c0.1-1.2,0.1-2.3-0.5-3.4
			c-0.1-0.2-0.2-0.5,0.1-0.7c0.4,0,0.5,0.3,0.6,0.6c0.3,1,0.4,2,0.4,3c0,0.1,0,0.3,0,0.5c0.2-0.2,0.3-0.3,0.4-0.4
			c0.4-0.7,0.8-1.5,1.2-2.2c0.2-0.3,0-0.6-0.2-0.8c-0.9-1.5-1.9-3.1-2.8-4.6c-1.1-1.9-2.3-3.8-3.4-5.7c-0.5-1-0.9-2-1.3-3
			c-0.7-1.6-1.3-3.3-2-5c-1-2.6-1.9-5.1-2.8-7.7c-0.3-0.8-0.3-1.7-0.5-2.6c-0.1-0.6-0.2-1.1-0.3-1.7c-0.4-2-0.7-4.1-1-6.1
			c-0.1-0.6-0.4-1.1-0.8-1.6c-1.6-2.2-2.9-4.5-3.8-7.1c-0.5-1.4-0.9-2.9-1.3-4.4c-0.2-0.7-0.3-1.4-0.4-2.1c0-0.2-0.1-0.4-0.3-0.6
			c-1.8-2.8-3.2-5.9-4.4-9C6,95,5.8,94.2,5.6,93.3c-0.2-0.5-0.3-1.1-0.5-1.6c-0.1-0.2-0.2-0.4-0.4-0.5c-0.4-0.3-0.6-0.7-0.6-1.2
			c-0.1-0.8-0.1-1.7-0.1-2.5c0-0.3,0-0.6,0.3-0.7c0.4-0.1,0.7,0,0.9,0.3c0.4,0.7,0.6,1.4,0.5,2.1c0,0.4-0.1,0.8-0.3,1.2
			c-0.2,0.5-0.1,1,0,1.5c0.5,1.5,0.9,3,1.5,4.4c0.2,0.4,0.2,1,0.7,1.3c0.4-0.6,0.8-1.2,1.2-1.9c0.1-0.2,0.2-0.5,0.2-0.8
			c0.1-0.9,0.1-1.9,0.1-2.8c0-1.2,0.4-2.2,0.8-3.2c0.1-0.3,0.1-0.6,0.2-1c0-0.2,0-0.3,0-0.5c-0.1-1.7,0.2-3.3,0.4-4.9
			c0.1-0.3,0.1-0.5-0.2-0.7c-0.3-0.3-0.3-0.6-0.2-1c0.3-1.2,0.6-2.5,1.5-3.5c0.1-0.1,0.3-0.3,0.4-0.3c0.2,0.1,0.4,0.3,0.4,0.4
			c0.1,0.4,0.2,0.8,0.1,1.2c-0.2,0.8-0.6,1.5-1,2.3c-0.4,0.8-0.8,1.5-0.8,2.4c0,0.2,0,0.5-0.1,0.7c-0.4,1.1-0.2,2.2-0.3,3.3
			c0,0,0.1,0.1,0.1,0.2c0.5-0.5,0.9-1.1,1.3-1.6c0.8-1.1,1.6-2.2,2.1-3.5c0.2-0.6,0.7-1.1,1.2-1.6c0.1-0.1,0.4-0.1,0.7-0.2
			c0,0.2,0.1,0.4,0.1,0.6c-0.3,0.9-0.7,1.7-1.7,2.1c-0.2,0.1-0.4,0.2-0.5,0.4c-1.1,1.5-2.1,3.1-3.2,4.6c-0.2,0.2-0.3,0.5-0.3,0.8
			c0,1.3,0,2.5,0.1,3.9c0.2-0.1,0.3-0.1,0.4-0.2c1-1.4,2.1-2.8,3-4.2c0.3-0.5,0.5-1.1,0.7-1.7c0.4-0.9,1.1-1.4,1.9-1.8
			c0.3-0.1,0.5-0.2,0.7,0c0.2,0.2,0.1,0.5,0,0.7c-0.6,1-1.2,2-2.3,2.5c-0.2,0.1-0.4,0.3-0.6,0.5c-0.9,1.2-1.7,2.4-2.6,3.6
			c-0.9,1-1.3,2-0.9,3.4c0.3,1,0.1,2.1,0.3,3.2c0.2,1.6,0.2,3.1,0.1,4.7c-0.1,1.2,0.2,2.3,0.5,3.5c0.5,2,1.1,3.9,1.9,5.8
			c0.7,1.6,1.5,3.1,2.5,4.5c0.1,0.1,0.2,0.3,0.3,0.5c0.3-0.5,0.1-0.7,0.1-1c-0.1-0.4-0.2-0.7-0.2-1.1c-0.1-1.3-0.2-2.6-0.3-3.9
			c-0.1-0.9-0.1-1.9-0.1-2.8c0-1.6-0.1-3.1-0.1-4.7c0-1.1,0.2-2.3,0.2-3.4c0-0.2,0-0.5,0-0.7c0-1.6,0.2-3.2,0.6-4.7
			c0.3-1.1,0.5-2.2,0.7-3.4c0.4-1.5,0.9-3,1.3-4.5c0.4-1.7,1.1-3.3,1.7-5c0.6-1.4,1.2-2.8,1.9-4.2c0.3-0.6,0.3-1.1,0.1-1.7
			c-0.5-1.3-0.8-2.7-1.1-4.1c-0.2-0.8-0.3-1.6-0.5-2.4c0-0.2-0.2-0.4-0.4-0.5c-0.8-0.3-1.5-0.5-2.3-0.8c-0.3-0.1-0.6-0.2-0.9-0.4
			c-0.2-0.1-0.4-0.3-0.3-0.6c0.2-0.3,0.4-0.1,0.6,0c0.4,0.3,0.8,0.6,1.2,0.9c0.5,0.3,1.2,0.3,1.8,0.5c-0.1-0.8-0.1-1.5-0.2-2.1
			c0-0.2-0.2-0.4-0.3-0.5c-0.3-0.2-0.7-0.4-1.1-0.6c-0.5-0.3-1-0.7-1.5-1c-0.2-0.2-0.3-0.4,0-0.6c0.2-0.2,0.5-0.1,0.6,0.1
			c0.3,0.7,1,1,1.6,1.4c0.1,0.1,0.3,0.1,0.6,0.2c0-0.9,0-1.7,0-2.4c-0.6-0.4-1.1-0.8-1.6-1.2c-0.1-0.1-0.3-0.1-0.3-0.3
			c-0.1-0.1,0-0.3-0.1-0.4c0.2,0,0.3,0,0.5,0c0.1,0.1,0.2,0.2,0.3,0.3c0.3,0.3,0.6,0.5,1,0.8c0.1-1,0.1-1.9,0.3-2.7
			c0.1-0.6,0.1-1.2-0.1-1.9c-0.1-0.5,0.1-0.9,0.5-1.1c0.4-0.2,0.6,0,0.9,0.2c0.3,0.3,0.3,0.8,0.1,1.1c-0.1,0.1-0.2,0.3-0.3,0.4
			c-0.4,0.2-0.5,0.6-0.5,1.1c-0.1,0.8-0.1,1.7-0.1,2.7c0.3-0.1,0.4-0.2,0.6-0.3c0.2-0.2,0.3-0.4,0.5-0.5c0.2-0.2,0.4-0.3,0.5-0.1
			c0.1,0.1,0,0.4-0.1,0.5c-0.3,0.3-0.7,0.6-1,0.8C21.1,64,21,64.2,21,64.6c0.1,0.7-0.1,1.4,0.2,2.2c0.3-0.3,0.6-0.6,0.9-0.8
			c0.1-0.1,0.2-0.3,0.3-0.4c0.1-0.1,0.3-0.1,0.5-0.1c0,0.2,0.1,0.4,0,0.5c-0.2,0.2-0.4,0.4-0.6,0.7c-0.1,0.1-0.2,0.1-0.3,0.2
			c-0.7,0.4-1,1-0.8,1.8c0.1,0.2,0.1,0.5,0.1,0.8c0.7,0,1-0.7,1.8-0.9c-0.1,0.3-0.1,0.5-0.3,0.6c-0.3,0.2-0.5,0.5-0.9,0.6
			c-0.4,0.2-0.6,0.5-0.5,0.9c0.3,1.5,0.7,3.1,1,4.6c0.1,0.4,0.2,0.8,0.3,1.2c0.1,0.2,0.2,0.4,0.3,0.7c0.2-0.2,0.3-0.3,0.3-0.4
			c1-2,2-4,3-5.9c0.6-1.2,1.3-2.4,2.1-3.4c0.6-0.9,0.7-1.8,0.5-2.8c-0.1-0.7-0.1-1.4,0-2.1c0.1-1,0.3-1.9,0.7-2.7
			c0.1-0.2,0.1-0.4,0-0.6c-0.4-1.9-0.8-3.9-1.3-5.8c-0.3-1-0.8-2-1.4-3c-0.4-0.7-1.1-0.9-1.8-1.2c-1.7-0.5-3.4-1-5-1.9
			c-0.8-0.5-1.5-1.1-2.1-1.8c-1.7-2.1-2.9-4.5-4-7c-0.4-1-0.9-2.1-1.8-2.8c0.3-0.4,0.6-0.2,0.8,0c0.7,0.5,1.3,0.9,2,1.3
			c1.3,0.9,2.6,1.8,3.9,2.7c1.5,1.1,3.1,2.1,4.6,3.1c1.6,1.1,2.7,2.7,3.3,4.6c0.1,0.4,0.1,0.8,0.1,1.1c0,0.5,0.1,0.8,0.3,1.2
			c0.6,1.2,1.2,2.5,1.6,3.8c0.4,1.3,0.6,2.7,0.9,4.1c0,0.2,0.1,0.3,0.2,0.5c0.4-0.2,0.3-0.5,0.4-0.8c0.6-1.5,0.9-3,1-4.6
			c0.1-1.6,0-3.2-0.2-4.8c0-0.3-0.2-0.6-0.4-0.9c-0.8-0.8-1.3-1.7-1.6-2.7c-0.6-1.8-1.1-3.7-0.9-5.6c0.1-1.1,0.3-2.3,0.4-3.4
			c0.1-1.2,0.2-2.4,0.3-3.7c0-0.4-0.1-0.8-0.1-1.3c0.5-0.1,0.6,0.2,0.7,0.5c0.4,1.2,0.7,2.5,0.9,3.7c0.3,1.9,0.8,3.7,1.1,5.5
			c0.3,1.7,0.3,3.5,0.2,5.2c-0.1,1.3,0,2.6,0,3.9c0,0.8,0,1.7,0,2.5c0,0.4,0,0.7,0,1.1c0,1.6-0.3,3-0.9,4.4c-0.5,1.2-1,2.4-1.3,3.7
			c-0.3,1.1-0.4,2.3-0.2,3.4c0.1,0.3,0.1,0.5,0.2,0.9c0.2-0.2,0.3-0.3,0.4-0.4c1.4-2,2.8-4,4.3-5.9c1.2-1.6,2.5-3.2,3.8-4.7
			c0.6-0.7,1.3-1.3,1.9-2c0.2-0.2,0.3-0.4,0.4-0.7c1-2.8,1.8-5.5,2.9-8.3c0.5-1.2,1.2-2.3,1.8-3.5c1-2,2-4.1,2.9-6.1
			c0.7-1.5,1.3-3.1,1.9-4.7c0.8-2.1,1.3-4.3,1.6-6.5c0.1-0.8,0.2-1.5,0.4-2.3c0.4-1.4,0.3-2.7,0.2-4.1c0.2-0.2,0.4-0.1,0.4,0.1
			c0.1,1.3,0.2,2.7-0.1,4c-0.2,1.1-0.4,2.1-0.6,3.2c-0.1,0.6-0.3,1.3-0.4,1.9c-0.7,3.1-1.8,6-3.2,8.8c-1.3,2.8-2.7,5.5-4.1,8.3
			c-0.6,1.2-1,2.4-1.4,3.6c-0.5,1.5-1,2.9-1.5,4.4c0.4,0.3,0.5,0,0.7-0.2c1.4-1.1,2.1-2.7,2.8-4.2c1.6-3.6,3.8-6.6,6.7-9.1
			c1.2-1,2.4-2,3.7-3c1.3-1,2.7-1.7,4.1-2.5c0.6-0.3,1.3-0.7,1.9-1c0.5-0.2,0.8-0.6,1-1.1c0.6-1.1,1.2-2.3,1.9-3.4
			c0.2-0.3,0.3-0.6,0.5-0.9c0.3-0.6,0.4-1.1-0.2-1.6c-0.3-0.2-0.4-0.6-0.3-1c0-1-0.1-1.9,0.3-2.8c0.2-0.4,0.3-0.8,0.5-1.2
			c0.7-1.1,1.2-2.4,1.5-3.6c0-0.2,0.1-0.3,0.3-0.7c0.2,0.4,0.3,0.6,0.4,0.9c0.1,0.5,0.3,1,0.4,1.5c0.2,1.7,0.3,3.4-0.2,5.1
			c-0.3,1-0.7,2-1.7,2.6c-0.1,0.1-0.3,0.2-0.3,0.4c-0.7,1.2-1.3,2.3-1.9,3.5c-0.2,0.4-0.4,0.8-0.7,1.3c0.3,0,0.4,0,0.5-0.1
			c1.5-0.7,2.9-1.4,4.3-2.1c1.4-0.7,2.7-1.5,4.1-2.3c0.3-0.2,0.5-0.5,0.6-0.7c0.5-1.6,1-3.3,1.5-4.9c0.3-1.1,0.6-2.2,0.9-3.3
			c0.3-1.2,0.4-2.4,0.6-3.5c0.1-0.4,0.1-0.8,0.2-1.2c0.1-0.7,0.1-1.4-0.7-1.8c-0.1-0.1-0.2-0.3-0.3-0.5c-0.8-1.4-1.2-2.9-1.4-4.4
			c-0.2-1.4-0.3-2.7-0.4-4.1c0-0.2,0.1-0.3,0.2-0.7c0.2,0.3,0.3,0.4,0.4,0.6c0.2,1.8,1.1,3.3,1.7,4.9c0.4,1,0.8,2,1.2,3.1
			c0.2,0.6,0.3,1.2-0.1,1.8c-0.1,0.2-0.1,0.4-0.1,0.6c0,1.5-0.2,3-0.6,4.4c0,0,0,0.1,0.1,0.2c0.3-0.2,0.7-0.5,1-0.7
			c1.6-1.2,2.9-2.6,3.8-4.5c0.1-0.3,0.2-0.6,0-0.9C80.1,9.4,80,9.2,80,9c0.2-0.9,0.6-1.7,1.4-2.3c0.9-0.8,1.8-1.6,2.7-2.4
			c0.6-0.6,1-1.4,1.4-2.1c0.1-0.2,0.2-0.3,0.3-0.6C85.9,1.8,86,1.9,86.1,2c0,0.1,0,0.3,0,0.4c-0.3,1.5-0.5,3.1-1.4,4.3
			c-0.6,0.9-1.3,1.9-2.3,2.4c-0.2,0.1-0.4,0.3-0.7,0.3c-0.7,0.2-1.2,0.6-1.5,1.3c-0.5,1.1-1.2,2.2-2.1,3.1c-0.9,0.8-1.7,1.6-2.6,2.3
			c-0.4,0.4-0.6,0.7-0.7,1.3c-0.2,1.1-0.5,2.2-0.8,3.3c-0.3,1.1-0.6,2.3-0.9,3.5c0.2-0.1,0.4-0.1,0.6-0.1c2-1.1,4.1-2.1,6.1-3.2
			c0.9-0.5,1.9-0.9,2.7-1.5c0.5-0.3,0.9-0.8,1.3-1.2c0.7-1,1.4-2,2.1-3c0.3-0.4,0.7-0.8,1-1.2c0.5-0.6,1.1-1.2,1.6-1.9
			c0.1-0.2,0.2-0.4,0.2-0.6c-0.2-1.2,0.3-2.1,1.1-2.9c1.1-1.1,2.5-2,3.9-2.7c0.8-0.4,1.6-0.9,2.4-1.3c0.2-0.1,0.5-0.4,0.7-0.1
			c0.2,0.2,0.1,0.5-0.1,0.7c-1.3,1.8-2.4,3.7-4.1,5.1c-0.7,0.6-1.5,1.1-2.3,1.7c-0.2,0.1-0.4,0.1-0.6,0.1c-0.5,0-0.9,0.3-1.3,0.7
			c-0.4,0.4-0.8,0.9-1.1,1.3c-1,1.3-2,2.7-3,4c-0.1,0.1,0,0.2-0.1,0.4c0.7-0.3,1.2-0.5,1.8-0.7c1.9-0.7,3.9-1.3,5.8-2
			c0.5-0.2,1.1-0.3,1.6-0.5c0.2-0.1,0.4-0.3,0.5-0.5c0.9-1.8,2.4-2.5,4.3-2.6c1.1-0.1,2.1,0,3.2-0.1c0.8-0.1,1.5-0.4,2.3-0.6
			c0.2-0.1,0.4-0.1,0.8-0.1c-0.2,0.3-0.2,0.5-0.3,0.6c-1.2,1.1-2.5,1.9-4,2.6c-1.8,0.8-3.7,1-5.7,1c-0.3,0-0.7,0.1-1,0.2
			c-1,0.3-2,0.5-3,0.9c-2,0.7-3.9,1.5-5.9,2.2c-0.8,0.3-1.5,0.7-2.3,1c-0.2,0.1-0.3,0.2-0.7,0.5c0.5,0.1,0.7,0.2,1,0.2
			c1.5,0.1,3,0.1,4.4,0.2c1.3,0.1,2.6,0.1,3.9,0.4c1,0.2,1.8,0.1,2.7-0.3c1.6-0.7,3.1-0.5,4.7,0.1c1.1,0.4,2.2,0.7,3.3,1
			c0.2,0.1,0.5,0.1,0.8,0.2c-0.2,0.2-0.2,0.4-0.4,0.4c-0.6,0.2-1.1,0.5-1.8,0.6c-0.9,0.1-1.8,0.2-2.8,0c-0.3-0.1-0.5-0.1-0.8-0.2
			c-1.5-0.4-2.9-0.9-4.4-1.2c-1.2-0.2-2.5-0.5-3.8-0.3c0.1,0.2,0.2,0.3,0.3,0.3c1.3,0.7,2.4,1.7,3.3,2.9c0.2,0.3,0.4,0.5,0.8,0.5
			c0.8,0.1,1.5,0.5,2.1,1.1c0.8,0.9,1.7,1.8,2.8,2.4c0.3,0.1,0.6,0.3,0.9,0.3c0.9,0.1,1.8,0,2.7,0.1c1.8,0.1,3.6,0.1,5.3,0.3
			c0.8,0.1,1.6,0.4,2.4,0.6c0.9,0.2,1.8,0.2,2.7-0.1c2.1-0.8,4-2.1,5.7-3.5c2-1.7,3.9-3.4,5.9-5.1c0.5-0.4,1.2-0.8,1.8-1.1
			c0.1-0.1,0.3-0.1,0.5-0.1c0.4-0.1,0.7-0.1,0.9,0.3c0.2,0.4-0.1,0.7-0.4,0.9c-0.6,0.3-1.2,0.7-1.8,0.9c-0.4,0.2-0.9,0.3-1.3,0.4
			c-0.8,0.2-1.4,0.7-2,1.3c-1.2,1-2.3,2-3.5,3c-0.1,0.1-0.2,0.2-0.4,0.5c0.6,0,1.1,0.1,1.5,0c1.1-0.2,2.2-0.5,3.3-0.8
			c0.8-0.2,1.6-0.3,2.5-0.5c0.5-0.1,1-0.2,1.4-0.3c0.8-0.2,1.7-0.5,2.5-0.7c0.7-0.1,1.3-0.2,2-0.3c0.7-0.1,1.3-0.2,2-0.3
			c0.2,0,0.3,0,0.5-0.1c1.4,0,2.7-0.1,4.1-0.1c0.8,0,1.5-0.4,2.1-0.8c0.7-0.3,1.5-0.3,2.2-0.4c0.2,0,0.6,0.2,0.7,0.4
			c0.2,0.2-0.1,0.7-0.4,0.9c-0.4,0.2-0.9,0.3-1.3,0.4c-1,0.3-1.9,0.4-2.9,0c-0.2-0.1-0.5,0-0.8,0c-0.9,0-1.9,0-2.8,0
			c-0.7,0-1.4-0.1-2,0.3c-0.1,0-0.2,0.1-0.2,0.1c-1,0.1-2,0.2-3,0.4c-0.8,0.1-1.5,0.4-2.3,0.6c-0.6,0.2-1.2,0.3-1.8,0.5
			c-1.1,0.3-2.2,0.5-3.3,0.8c-0.8,0.2-1.6,0.4-2.5,0.6c-0.4,0.1-0.8,0-1.2,0c-0.1,0-0.3,0-0.5,0.1c0.8,0.5,1.5,0.9,2.3,1.2
			c1.4,0.6,3,0.6,4.5,0.7c1.4,0.1,2.8,0,4.3,0.1c0.5,0,1,0.1,1.5,0.2c0.3,0,0.5,0.1,0.8,0.1c1.2-0.1,2.3,0.5,3.5,0.9
			c0.9,0.3,1.8,0.7,2.8,1c0.2,0.1,0.4,0,0.6,0c0.6-0.1,1.1-0.1,1.6,0.2c0.6,0.3,1.1,0.7,1.7,1c0.4,0.3,0.5,0.6,0.4,1
			c-0.1,0.2-0.2,0.5-0.5,0.4c-0.5-0.1-0.9-0.1-1.3-0.3c-0.6-0.3-1.1-0.6-1.5-1.1c-0.6-0.6-1.2-1-2-1.3c-1.2-0.5-2.3-0.9-3.5-1.2
			c-2.4-0.6-4.9-0.7-7.4-0.6c0,0,0,0-0.1,0.1c0.2,0.2,0.5,0.3,0.6,0.6c0.6,0.8,1.3,1.6,1.9,2.5c0.3,0.5,0.6,1,0.9,1.5
			c0.1,0.2,0.4,0.4,0.6,0.5c1.1,0.5,2.1,1,3.3,1.5c-0.1-0.3-0.1-0.4-0.1-0.6c-0.1-0.3-0.2-0.6-0.3-0.9c-0.1-0.3,0-0.6,0.3-0.8
			c0.3-0.1,0.5,0.1,0.7,0.3c0.3,0.5,0.6,1,1.1,1.3c0.7,0.6,1.6,1.2,2.4,1.7c0.8,0.5,1.6,1,2.4,1.5c0.5,0.3,0.9,0.7,1.1,1.2
			c0.4,0.8,1.1,1.2,1.7,1.7c2,1.3,3.9,2.7,5.9,4c0.2,0.2,0.6,0.2,0.8,0.2c0.6,0,1.1-0.1,1.7-0.1c0.5,0,0.9-0.2,1.3-0.6
			c0.8-0.8,1.2-1.9,1.7-2.9c0.5-1,0.8-2,0.7-3.1c-0.1-1,0-2.1-0.1-3.1c-0.2-1.2-0.2-2.4-0.2-3.6c0-1,0.3-1.9,1.2-2.6
			c0.5-0.4,0.9-0.8,1.3-1.3c0.4-0.4,0.7-1,0.7-1.6c0-0.4,0-0.8,0.4-1.1c0.1,0.2,0.2,0.4,0.2,0.5c0.1,0.5,0.1,1.1,0.1,1.6
			c0.3,2.1,0.2,4.1-0.5,6.1c-0.2,0.8-0.5,1.5-0.7,2.3c-0.3,1.1-0.8,2-1.4,3c-0.2,0.4-0.3,0.9-0.5,1.4c-0.8,1.5-1.6,3-2.4,4.6
			c0,0.1-0.1,0.2-0.1,0.3c1,0.2,1.9,0.4,2.9,0.5c0.6,0.1,1.2,0.2,1.8,0.4c0.3,0.1,0.5,0,0.8-0.1c1.5-0.7,3.1-1.4,4.6-2.1
			c1-0.4,2-0.6,3.1-0.7c0.6,0,1.1-0.1,1.7-0.1c0.6,0,1.3,0,1.9,0c1,0.1,1.8-0.2,2.7-0.4c1.2-0.3,2.4-0.8,3.7-0.8
			c0.9,0,1.8-0.1,2.6,0c1.4,0.1,2.9,0.3,4.3,0.8c0.6,0.2,1.3,0.5,1.9,0.7c0.6,0.3,0.6,0.6,0,0.9c-0.5,0.2-0.9,0.4-1.4,0.6
			c-2.1,0.7-4.3,0.7-6.4,0.4c-2.2-0.2-4.4-0.6-6.5-1.5c-0.3-0.1-0.7-0.2-1.1-0.2c-1.3,0-2.6,0.1-3.9,0.1c-1,0-1.9,0.3-2.8,0.7
			c-1.1,0.5-2.2,1.1-3.3,1.7c-0.1,0.1-0.2,0.2-0.3,0.3c0.8,0.5,1.7,0.9,2.4,1.4c1.3,1,2.9,1.3,4.4,1.9c1.2,0.5,2.3,1.2,3.4,1.8
			c1.5,0.8,2.4,2.3,3.5,3.5c0.1,0.1,0.2,0.4,0.1,0.5c-0.1,0.1-0.3,0.2-0.5,0.2c-2.5-0.2-4.8-0.9-6.7-2.5c-0.5-0.4-1-0.7-1.4-1.1
			c-1-0.9-1.9-1.8-2.2-3.2c0-0.2-0.2-0.3-0.3-0.4c-1-0.6-1.9-1.3-3-1.7c-1.1-0.4-2.3-0.6-3.4-0.8c-0.7-0.2-1.5-0.3-2.3-0.3
			c-1-0.1-2.1,0-3.1,0c-0.1,0-0.1,0.1-0.3,0.1c0.4,0.4,0.8,0.7,1.1,1.1c1.2,1,2.4,2.1,3.6,3.1c0.8,0.7,1.6,1.4,2.5,2
			c1.9,1.4,3.8,2.7,5.6,4.1c1.1,0.8,2.1,1.7,3.1,2.6c0.5,0.5,1,0.7,1.7,0.7c1.7,0.1,3.4,0.2,5.1,0.3c0.3,0,0.5-0.1,0.8-0.2
			c0.3-0.2,0.6-0.5,0.8-0.8c0.8-1.1,2-1.5,3.2-2.1c0.1-0.1,0.4,0,0.6,0.1c-1.6,0.8-3.1,1.5-4.1,3.1c0.4,0.4,0.7,0.8,1.4,0.9
			c0.7,0.1,1.4,0.2,2.1,0.3c0.2,0,0.3,0.1,0.6,0.2c-1.2,0.6-2.2-0.1-3.3,0c0.7,0.7,1.6,1.3,2.5,1.6c0.3,0.1,0.6,0.2,0.9,0.2
			c0.2,0.1,0.4,0.2,0.3,0.4c-0.1,0.1-0.3,0.2-0.5,0.1c-0.5-0.2-0.9-0.4-1.3-0.6c-0.6-0.3-1.2-0.7-1.9-1.1c-0.1-0.1-0.2-0.1-0.4-0.2
			c0.1,0.5,0.3,0.7,0.6,0.9c0.4,0.2,0.8,0.4,1.1,0.7c0.2,0.1,0.5,0.2,0.3,0.6c-0.6,0-0.9-0.6-1.5-0.8c0,0.5,0.4,0.8,0.7,1
			c0.3,0.3,0.7,0.6,1.1,0.9c0.2,0.1,0.4,0.3,0.1,0.5c-0.1,0.1-0.4,0-0.5-0.1c-0.7-0.6-1.5-1.2-1.9-2.1c-0.2-0.4-0.5-0.8-0.8-1.1
			c-0.4-0.6-0.7-1.2-0.6-2c-1,0.2-0.4,1-0.7,1.4c-0.6-0.3-0.6-0.6,0-1.6c-1.6-0.2-3.1-0.3-4.6-0.5c-0.2,0.4-0.1,0.5,0.1,0.7
			c1.2,1.2,2.3,2.4,3.5,3.6c0.7,0.7,1.3,1.3,2.1,1.9c1,0.8,1.7,1.8,2.5,2.8c0.1,0.2,0.3,0.3,0.5,0.5c0.9-1.4,2.1-2,3.6-2.1
			c1-0.1,1.8,0.3,2.3,0.9c-0.3,0-0.5,0-0.7-0.1c-0.7-0.7-1.6-0.4-2.4-0.3c-0.7,0.1-1.3,0.5-1.9,1c-0.1,0.1-0.1,0.2-0.1,0.4
			c0.9-0.1,1.6-0.8,2.5-0.8c0.8,0,1.7,0,2.4,0.6c-0.1,0.4-0.3,0.3-0.5,0.2c-1.6-0.7-3.1-0.3-4.4,0.7c-0.2,0.2-0.3,0.3-0.2,0.5
			c0.1,0.1,0.3,0.2,0.5,0.2c0.3,0,0.7,0,1-0.1c0.7-0.2,1.3,0.2,1.8,0.6c0.2,0.1,0.3,0.3,0,0.6c-0.8-0.6-1.6-1-2.6-0.5
			c0.3,0.8,0.3,0.8,1.2,0.8c0.2,0,0.4,0.1,0.6,0.2c0,0.1,0,0.1,0,0.2c-0.2,0-0.5,0.1-0.8,0.1c0,0.2,0,0.3,0.1,0.5
			c0.9,1.3,1.7,2.6,2.7,3.9c0.3,0.5,0.4,0.4,0.9,0.2c0.9-0.4,1.8-0.7,2.8-0.5c0.3,0,0.6,0.2,0.9,0.3c1.1,0.4,2.2,0.8,3,1.6
			c0.2,0.2,0.4,0.4,0.1,0.8c-0.2-0.2-0.5-0.3-0.6-0.5c-0.5-0.6-1.1-0.9-1.8-1.2c-0.9-0.4-1.9-0.7-2.9-0.6c-0.5,0-1,0.4-1.6,0.6
			c0,0,0,0.1,0,0.3c1.8-0.9,3.4-0.5,4.9,0.7c-0.1,0.3-0.3,0.4-0.6,0.2c-0.5-0.3-1-0.6-1.5-0.9c-0.6-0.3-1.2-0.3-1.9,0
			c-0.3,0.1-0.6,0.2-0.9,0.2c0,0.1,0,0.2,0.1,0.2c0.3,0.7,0.5,0.9,1.2,0.6c0.6-0.2,1.1-0.4,1.7-0.3c0.5,0.1,1,0.3,1.5,0.5
			c0.1,0,0.1,0.3,0.2,0.5c-0.2,0-0.3,0-0.5,0c0,0,0,0-0.1,0c-0.6-0.7-1.4-0.4-2.2-0.3c-0.3,0-0.6,0.2-0.9,0.3
			c-0.1,0.8,0.1,1,0.9,0.8c0.7-0.2,1.4-0.2,2,0.2c0,0.5-0.3,0.5-0.6,0.4c-0.6-0.2-1.2-0.2-1.8,0c0.1,0.8,0.6,1.1,1.3,1.5
			c-0.2,0.1-0.4,0.2-0.5,0.3c1.1,3.1,3.1,7.5,3.6,8.1c0.3-0.2,0.6-0.4,0.9-0.5c1.7-0.8,3.5-1,5.4-0.8c0.3,0,0.6,0.2,0.9,0.3
			c0.2,0.1,0.4,0.3,0.2,0.5c-0.1,0.1-0.4,0.1-0.5,0c-0.6-0.5-1.2-0.4-1.9-0.4c-1,0-2,0.2-3,0.3c-0.3,0-0.7,0.2-0.9,0.6
			c0.4,0,0.7-0.2,1-0.1c1.6,0.4,3.2,0.8,4.6,1.9c0.2,0.2,0.3,0.3,0.1,0.5c-0.2,0.2-0.5,0.1-0.6,0c-0.8-1.1-2-1.3-3.1-1.6
			c-0.7-0.2-1.4-0.2-2.1-0.4c-0.2,0-0.4,0-0.8,0.1c0.5,0.4,0.9,0.7,1.2,1c0.9,0.8,1.7,1.6,2.5,2.5c0.3,0.3,0.3,0.4-0.3,0.8
			c-0.9-1.7-2.3-2.8-3.9-4c0,0.4-0.1,0.7,0,1c0.3,1.4,0.7,2.7,1.8,3.8c0.3,0.3,0.6,0.6,0.1,0.9c-1.3-1.5-2.1-3.3-2.4-5.2
			c-0.4,0.1-0.5,0.5-0.6,0.8c0,0.9-0.1,1.8,0.2,2.7c0.2,0.6,0.1,0.7-0.6,0.8c0-1.1,0-2.2,0-3.5c-0.3,0.5-0.6,0.8-0.8,1.1
			c-0.5,0.8-0.8,1.8-1.1,2.7c-0.2,0.5-0.3,0.9-0.4,1.4c-0.1,0.2-0.3,0.4-0.5,0.6c-0.1,0-0.1,0-0.2-0.1c0-0.2-0.1-0.4,0-0.6
			c0.7-0.9,0.9-1.9,1.3-2.9c0.4-1.2,1.1-2.2,1.9-3.1c0.2-0.3,0.4-0.6,0.7-0.9c-0.5-1.2-1-2.4-1.5-3.5c-0.5-1.2-1.1-2.3-1.6-3.5
			c-0.5-1.2-0.9-2.3-1.7-3.4c-0.2,1-0.4,2-0.1,3c0.1,0.3,0.2,0.6-0.2,0.9c-0.7-0.7-0.6-2.9,0.1-4.5c-0.1-0.1-0.3-0.1-0.4-0.2
			c0.1-0.2,0.2-0.5-0.1-0.7c-0.4,0.3,0,0.5,0.1,0.7c0,0.1,0,0.1,0,0.1c-1.4,1.4-1.5,3-0.9,4.8c0.1,0.3,0.2,0.6,0.3,0.9
			c0,0.1-0.1,0.3-0.2,0.4c-0.1-0.1-0.3-0.2-0.3-0.3c-0.1-0.5-0.2-0.9-0.3-1.4c-0.1-0.5,0-1-0.6-1.1c0.3-1.7,1.1-3,1.8-4.4
			c0.2-0.4,0.2-0.4-0.4-0.9c-0.2,0.6-0.5,1.2-0.7,1.7c-0.3,0.9-0.6,1.8-0.9,2.6c-0.2,0.5-0.2,1.1-0.2,1.6c0,0.4,0,0.9,0,1.3
			c0,0.1-0.2,0.2-0.3,0.3c-0.2-0.9-0.2-1.7,0-2.6c0.3-1.7,1-3.2,1.6-4.8c0.1-0.3,0.2-0.5,0.3-0.8c-0.7-1-1.4-2-2.2-3.1
			c-0.4-0.6-0.9-1.3-1.3-1.9c-0.1-0.2-0.3-0.4-0.6-0.3c-0.3,0.1-0.3,0.3-0.3,0.6c0,0.3,0,0.5,0,0.8c0,0.4-0.1,0.7,0.3,1
			c0.1,0,0,0.2,0,0.4c-0.5-0.3-0.6-0.7-0.6-1.1c0-0.7-0.1-1.4,0.4-2c0.2-0.3,0.2-0.5-0.1-0.7c-0.8,0.5-1.2,1.6-1,2.7
			c0.1,0.4,0.1,0.8,0.2,1.1c0,0.1-0.1,0.2-0.2,0.3c-0.1-0.1-0.3-0.2-0.3-0.3c0.1-0.5-0.2-1-0.2-1.4c0-0.6,0.2-1.3,0.4-1.9
			c0-0.2,0.1-0.3,0.1-0.5c-0.9,0.6-2,0.9-2.1,2.1c0,0.3,0.1,0.7,0.1,1.1c-0.3-0.1-0.5-0.2-0.7-0.3c-0.3,0.6-0.1,1.3-0.1,1.9
			c0,0.2,0.2,0.5-0.1,0.7c-0.1,0-0.2,0-0.2,0c-0.3-0.2-0.1-0.4-0.1-0.7c-0.1-1.2,0.3-2.2,0.7-3.3c0.2-0.3,0.2-0.7,0.3-1.1
			c0.3-1,1.2-1.6,2.3-1.5c0.1,0,0.2-0.1,0.4-0.1c-0.5-0.7-0.9-1.3-1.4-1.9c-1.4-1.5-2.9-2.8-4.3-4.3c-0.9-0.9-1.8-1.9-2.8-2.8
			c-1-0.9-2-1.8-3-2.7c-0.9-0.7-1.9-1.4-2.8-2.1c-2.1-1.5-4.2-3.1-6.3-4.7c-1-0.7-1.8-1.7-2.8-2.5c-2.1-1.7-4.1-3.4-6.2-5
			c-0.9-0.7-1.9-1.3-2.9-1.9c-0.1,0-0.2,0-0.2,0c0,0.1-0.1,0.1-0.1,0.2c0.3,0.7,0.6,1.6,1.4,2c1,0.5,1.7,1.3,2.5,2.1
			c2.3,2.4,4.6,4.9,6.9,7.3c1.7,1.9,3.3,3.9,4.7,6c0.2,0.3,0.5,0.6,0.7,0.9c1.1,1.5,2.3,3.1,3.4,4.6c0.4,0.6,0.7,1.3,1.1,1.9
			c0.9,1.8,1.8,3.5,2.7,5.3c0.1,0.1,0.1,0.3,0.2,0.4c0.6,0.8,1,1.7,1.3,2.6c0.7,1.8,1.3,3.6,2,5.4c1,2.4,1.7,4.9,2.5,7.4
			c0.2,0.5,0.2,1,0.2,1.5c0.1,1.1,0.2,2.1,0.2,3.2c0,0.4,0.1,0.7,0.1,1.1c0.1,0.9,0.2,1.7,0.3,2.6c0.1,0.6,0.2,1.2,0.2,1.9
			c0.1,1.9,0.2,3.7,0.1,5.6c-0.1,1.3,0.4,2.2,1,3.2c1,1.7,1.9,3.3,2.8,5c0.1,0.1,0.1,0.3,0.1,0.5l0,0c-0.1-0.1-0.3-0.2-0.3-0.3
			c-1.1-1.7-2.1-3.5-3.2-5.2c-0.1-0.2-0.2-0.3-0.4-0.6c0,0.3-0.1,0.5-0.1,0.7c0,0.7,0,1.4,0,2.1c0,0.8-0.1,1.6-0.1,2.5
			c0,1,0,1.9-0.1,2.9c-0.2,1.5-0.4,3-0.7,4.5c-0.4,1.9-0.8,3.8-1.3,5.8c-0.6,2.8-1.5,5.5-2.6,8.1c-0.9,2-1.6,4-2.5,6
			c-0.4,1-0.9,2-1.3,2.9c-0.5,1.1-1.2,2-1.6,3.1c-0.3,0.7-0.4,1.5-0.5,2.3c-0.1,1.2-1.2,2.5-2.4,2.7c-0.5,0.1-0.9,0.3-1.3,0.8
			c-1.1,1.3-2.3,2.6-3.4,3.9c-0.7,0.8-1.4,1.7-2.2,2.5c-1.3,1.4-2.6,2.7-3.8,4.1c-0.9,1-1.8,2.1-2.7,3.1c-0.7,0.7-1.4,1.4-2.2,2
			c-0.7,0.5-1.4,1-1.9,1.6c-0.3,0.4-0.7,0.6-1.2,0.9c-1.5,1.1-3.2,1.9-4.9,2.7c-1.2,0.6-2.4,1.3-3.6,1.9c-3.3,1.7-6.6,3.1-10.2,4
			c-3.8,0.9-7.5,2-11.3,2.9c-1.4,0.4-2.8,0.6-4.3,0.8c-1,0.2-2,0.4-3,0.5c-0.3,0.1-0.7,0.1-1,0.1c-2.7,0-5.4,0-8.1,0
			c-1.4,0-2.8-0.1-4.3-0.3c-0.6-0.1-1.2-0.2-1.8-0.3c-2-0.5-4.1-0.6-6.2-0.8c-1.2-0.1-2.4-0.3-3.6-0.5c-0.2,0-0.4-0.1-0.6-0.1
			c-0.9-0.5-1.8-0.5-2.8-0.6c-0.3,0-0.6-0.1-0.9-0.2c-1.7-0.4-3.3-1-4.9-1.6c-0.1,0-0.2-0.1-0.3-0.1c-0.6-0.5-1.2-0.5-1.9-0.2
			c-0.9,0.3-2.8-0.5-3.2-1.4c-0.2-0.4-0.1-0.8,0.3-0.8c0.9-0.2,1.9-0.4,2.8,0.2c0.4,0.2,0.7,0.5,1.1,0.7c0.1,0.1,0.2,0.1,0.2,0.2
			c0.3,0.9,1.1,0.9,1.8,1.2c0.5,0.2,0.9,0.3,1.4,0.5c1.1,0.3,2.2,0.7,3.4,0.9c1.1,0.2,2.2,0.3,3.2,0.7c0.5,0.2,1.1,0.3,1.7,0.3
			c2.2,0.2,4.3,0.5,6.5,0.7c0.2,0,0.4,0.1,0.6,0.1c1.6,0.6,3.3,0.6,4.9,0.7c0,0,0.1,0,0.2-0.1c-0.1-0.3-0.4-0.4-0.6-0.4
			c-1.7-0.6-3.4-1.2-4.7-2.4c-1.3-1.1-2.6-2.2-3.5-3.7c-0.3-0.5-0.8-0.9-1.2-1.4c-0.2-0.2-0.4-0.4-0.5-0.6c-0.3-0.6-0.8-0.9-1.4-1
			c-0.7-0.2-1.2-0.8-1.5-1.5c-0.1-0.3-0.1-0.7,0.1-0.9c0.2-0.3,0.6-0.3,1-0.2c0.7,0.2,1.5,1.2,1.5,1.9c0,0.4,0.2,0.7,0.4,1
			c0.8,1.3,1.9,2.4,2.9,3.6c1.8,2.1,4,3.8,6.7,4.7c0.9,0.3,1.7,0.7,2.6,1c0.3,0.1,0.7,0.2,1.1,0.2c2.6,0,5.3,0,7.9,0
			c0.9,0,1.9-0.2,2.8-0.4c1.9-0.4,3.7-0.8,5.6-1.2c2.5-0.6,4.9-1.3,7.4-1.9c2.3-0.5,4.1-1.7,5.8-3.3c0.4-0.4,0.9-0.8,1.3-1.1
			c0.4-0.3,0.6-0.7,0.6-1.2c0-0.5,0.2-1,0.3-1.5c0.1-0.6,0-1.1,0.1-1.7c0-0.1,0-0.3,0-0.4c0.3-0.7,0.5-1.4,0-2.1
			c0.4-1.1-0.2-2.1-0.3-3.2c0-0.1-0.1-0.2,0-0.2c0.2-1.6,0.4-3.3,1.1-5c0.1,0.3,0.2,0.4,0.2,0.6c-0.2,0.5,0.6,0.9,0.2,1.5
			c0.3,0.6,0.3,1.3,0.5,1.8c0.5,1,0.3,2,0,2.9c-0.2,0.6-0.4,1.2-0.6,1.7c-0.1,0.2-0.1,0.3-0.2,0.4c-0.6,0.7-0.7,1.5-0.7,2.4
			c0,0.8-0.2,1.7-0.2,2.5c0.4,0.1,0.6-0.2,0.9-0.4c1.1-1.1,2.2-2.1,3.3-3.2c0.8-0.8,1.6-1.6,2.3-2.4c0.2-0.2,0.3-0.5,0.3-0.8
			c-0.1-1.4-0.2-2.8-0.4-4.3c0-0.1,0-0.2-0.1-0.2c-0.7-1.4-0.5-2.8-0.3-4.2c0.1-0.3,0-0.7,0-1c0.1,0,0.1,0,0.2-0.1
			c0.3,0.4,0.6,0.7,0.9,1.1c0.3,0.5,0.6,1,1,1.4c0.5,0.5,0.7,1.2,0.5,1.8c-0.1,0.6-0.3,1.3-0.6,1.8c-0.8,1-0.9,2.1-0.8,3.3
			c0.2-0.1,0.3-0.2,0.5-0.3c0.4-0.4,0.8-0.9,1.2-1.4c1.5-1.8,3-3.6,4.4-5.4c0.2-0.2,0.4-0.5,0.4-0.8c0-0.5-0.2-1.1-0.4-1.6
			c-0.1-0.3-0.4-0.5-0.6-0.8c-0.7-1.1-1.9-1.8-3-2.5c-1.1-0.7-2.1-1.6-2.9-2.8c-0.3-0.5-0.6-1-0.9-1.4c-0.2-0.3-0.7-1.9-0.7-2.3
			c0.5,0.5,1.1,0.9,1.6,1.3c0.7,0.7,1.4,1.4,2.2,2.1c0.6,0.6,1,1.3,1.3,2.1c0.1,0.2,0,0.5,0,0.7c1,1,2,1.9,3,2.8
			c0-0.1,0.1-0.2,0.1-0.4c0-1.1,0.1-2.3-0.3-3.4c-0.2-0.6-0.4-1.1-0.6-1.7c-0.5-0.9-0.8-1.9-0.9-3c-0.1-1.6-0.1-3.1-0.2-4.7
			c0-0.6,0-1.2,0.1-1.9c0-0.1,0.1-0.2,0.2-0.4c0.2,0.3,0.3,0.5,0.4,0.7c0.6,1.6,1.3,3.1,1.8,4.7c0.4,1.5,0.2,3-0.1,4.5
			c-0.2,0.9-0.3,1.7-0.1,2.6c0.3,1.3,0.4,2.6,0.6,3.9c0,0.1,0.1,0.1,0.1,0.3c0.2-0.1,0.3-0.2,0.4-0.4c1.4-2,2.8-4,4.2-6
			c0.5-0.7,0.7-1.4,0.5-2.3c-0.1-0.3-0.1-0.6-0.1-0.9c0.2-0.9,0.1-1.9,0.1-2.8c0-0.6,0-1.2,0.2-1.7c0.3-0.9,0.1-1.8,0-2.8
			c-0.2-2.2-0.7-4.4-0.2-6.6c0.1-0.4,0.1-0.8,0.1-1.4c0.2,0.2,0.3,0.3,0.4,0.4c0.3,0.8,0.7,1.5,1,2.3c0.6,1.6,1,3.2,0.6,4.9
			c-0.1,0.4-0.4,0.8-0.7,1.1c-0.3,0.2-0.5,0.5-0.5,0.8c-0.2,1-0.6,2-0.5,3.1c0.1,1.2,0.1,2.5,0.2,3.7c0,0.1,0,0.2,0.1,0.4
			c0.3-0.5,0.6-1,0.9-1.4c1-1.6,2.1-3.3,3.1-4.9c0.5-0.9,1-1.7,1.5-2.6c0.1-0.2,0.1-0.4,0.1-0.6c0-1.2,0.1-2.4,0-3.6
			c-0.2-1.1-0.4-2.3-1.1-3.3c-0.6-0.8-0.9-1.8-1.3-2.7c-0.1-0.4,0-0.8-0.1-1.2c-0.2-1.4-0.3-2.8-0.5-4.2c-0.1-0.4-0.2-0.8-0.3-1.3
			c0.6,0.1,1,0.5,1.2,0.9c0.7,0.9,1.5,1.9,2.1,2.9c0.8,1.3,1,2.8,0.7,4.3c-0.1,0.7-0.4,1.3-0.7,1.9c-0.1,0.2-0.3,0.5-0.2,1
			c0.5-0.8,0.8-1.4,1.2-2c0.5-0.6,0.4-1.3,0.4-2c0-0.8,0.1-1.5,0.5-2.2c0.5-0.9,0.9-1.9,1.3-2.9c0.3-0.8,0.7-1.6,1-2.4
			c0.1,0.1,0.2,0.2,0.2,0.2c0,1.1,0,2.3-0.1,3.3c-0.2,1-0.6,1.9-0.9,2.9c0,0.1-0.1,0.2-0.1,0.2c-0.3,0.7-1,1-1.2,1.8
			c-0.1,0.7-0.7,1.2-1.1,1.8c-0.6,1-0.8,2-0.7,3.1c0,1.1,0,2.1,0,3.2c0,0.1,0,0.3,0,0.5c0.2-0.1,0.3-0.1,0.4-0.2
			c1.1-1.1,2.1-2.2,3.2-3.3c0.6-0.7,0.8-1.5,0.8-2.3c0-0.3,0.1-0.5,0.2-0.8c0.4-0.8,0.9-1.6,1.3-2.4c0.6-1.1,1.1-2.2,1.3-3.4
			c0-0.1,0.1-0.2,0.2-0.4c0.1,0.2,0.3,0.4,0.3,0.5c-0.1,1.4-0.2,2.8-0.3,4.2c-0.1,1.1-0.6,2.1-1.2,3c-0.2,0.3-0.6,0.5-0.9,0.6
			c-0.4,0.1-0.7,0.4-0.9,0.7c-0.8,1.1-1.6,2.2-2.7,3.1c-0.1,0.1-0.1,0.2-0.3,0.4c1.7-0.2,3.3-0.5,4.7-1.3c1.4-0.8,3-1.4,3.9-2.9
			c0.5,0.8,0.5,1.6,0.2,2.4c-0.2,0.5-0.3,1.1-0.8,1.6c-0.3,0.3-0.5,0.6-0.9,0.7c-0.7,0.2-1.2,0.7-2,0.6c-0.7-0.2-1.3-0.3-1.9-0.6
			c-0.6-0.3-1.2-0.4-1.9-0.2c-0.4,0.1-0.9,0.1-1.3,0.3c-0.4,0.2-0.9,0.4-1.2,0.7c-0.6,0.5-1,1.1-1.4,1.8c-0.6,1.1-1.3,2.2-1.9,3.3
			c-1,1.6-2.1,3.3-3.2,4.9c-0.3,0.4-0.6,0.9-1,1.4c0.3,0,0.5,0.1,0.6,0c0.5-0.3,1-0.2,1.5-0.2c0.5,0,1,0,1.5,0
			c0.8,0,1.2-0.4,1.4-1.2c0.2-0.6,0.5-1.1,0.8-1.6c1.2-1.5,2.5-3,3.8-4.5c0.4,0.2,0.6,0.3,0.6,0.8c0,1.6-0.7,2.8-1.7,3.9
			c-0.2,0.2-0.5,0.4-0.7,0.6c-0.6,0.6-1.3,0.9-2,1.2c-0.4,0.2-0.7,0.3-0.9,0.8c-0.1,0.3-0.4,0.3-0.6,0.3c-0.7,0-1.3,0-2,0
			c-1.1,0-2,0.3-2.9,0.9c-0.3,0.2-0.6,0.5-0.8,0.9c-0.9,1.3-1.8,2.6-2.7,3.9c-0.6,0.8-1.2,1.7-1.9,2.5c-0.1,0.1-0.1,0.2-0.2,0.3
			c0.3,0.3,0.5,0.1,0.7,0c0.8-0.5,1.6-1,2.4-1.5c0.7-0.4,1.4-0.8,2.1-1.1c0.5-0.2,0.9-0.6,1.2-1.1c0.5-0.9,1.1-1.7,1.7-2.4
			c0.2-0.2,0.4-0.3,0.6-0.5c0.1,0.2,0.2,0.4,0.2,0.5c0,0.5-0.1,1.1-0.2,1.6c-0.2,1.3-0.9,1.9-2,2c-0.5,0-0.9,0-1.4,0.2
			c-1,0.3-1.9,0.8-2.7,1.4c-0.8,0.6-1.6,1.1-2.6,1.3c-0.4,0.1-0.8,0.3-1,0.6c-1.1,1.2-2.1,2.5-3.2,3.7c-0.6,0.6-1.1,1.3-1.7,1.9
			c-0.1,0.1-0.2,0.3-0.3,0.5c0.8,0,1.4,0.2,2.1-0.1c0.5-0.2,1.1-0.2,1.6-0.4c0.6-0.3,1.1-0.6,1.7-1c0.5-0.3,1.1-0.5,1.7-0.5
			c1,0,1.9-0.2,2.8-0.3c0.2,0,0.4-0.2,0.7-0.3c0.2-0.1,0.4-0.2,0.6-0.3c0,0.1,0.1,0.1,0.1,0.2c-0.2,0.2-0.3,0.4-0.5,0.5
			c-1.1,0.5-2.1,1.1-3.2,1.5c-0.8,0.3-1.8,0.3-2.6,0.4c-0.3,0-0.6,0.1-0.9,0.2c-0.8,0.2-1.5,0.3-2.3,0.5c-0.5,0.1-0.9,0-1.4,0
			c-0.5,0-0.8,0.1-1.2,0.5c-1.1,1.1-2.1,2.2-3.2,3.3c-0.2,0.3-0.5,0.5-0.8,0.7c-0.1,0.1-0.2,0.2-0.3,0.5c0.3,0,0.4,0,0.6,0
			c0.5-0.2,0.9-0.5,1.5-0.5c0.2,0,0.4-0.1,0.5-0.3c1-1,2.3-1.1,3.6-0.8c0.6,0.1,1.1,0.3,1.6,0.5c0.2,0,0.4,0,0.5-0.1
			c2.1-0.9,4-1.9,5.5-3.6c0.8-0.9,1.8-1.6,2.7-2.4c0.6-0.5,1.2-1.1,1.7-1.6c1-1,1.9-2.1,2.9-3.1c0.9-1,1.7-2,2.6-3
			c0.8-0.9,1.7-1.8,2.6-2.8c0.4-0.4,0.7-0.8,1-1.2c0.6-0.8,1.2-1.6,1.9-2.5c-0.6-0.4-1.2-0.9-1.9-1.2c-0.2-0.1-0.4,0-0.6-0.1
			C154,150.1,153.6,150.1,153.2,150.1L153.2,150.1z M75.2,26.1c-0.7-0.1-1.4-0.3-2.1-0.4c-0.6-0.1-1.2-0.1-1.7,0.2
			c-2,1.1-4.1,2.1-6.1,3.2c-2,1-4,2-5.9,3c-1.8,0.9-3.6,1.9-5.1,3.2c-0.6,0.5-1.1,0.9-1.7,1.5c0.6,0.4,1.2,0.4,1.7,0.4
			c0.9,0,1.9-0.1,2.8-0.2c1.3-0.2,2.6-0.1,3.8-0.4c0.9-0.3,1.9-0.4,2.8-0.2c0.7,0.1,1.2,0,1.8-0.2c0.3-0.1,0.5-0.2,0.8-0.3
			c1.4-0.5,2.8-1.1,4.2-1.6c0.8-0.3,1.6-0.7,2.4-1c2-0.7,4.1-1.3,6.1-2c0.4-0.1,0.8-0.3,1.4-0.5C78.2,29.4,76.4,28,75.2,26.1z
			 M94.3,29.2c-0.2-0.3-0.2-0.4-0.3-0.5c-0.5-0.6-0.9-1.2-1.2-2c-0.3-0.7-0.7-1.5-1.2-2.1c-0.9-1.1-1.9-2-3.2-2.6
			c-0.9-0.5-1.9-0.8-3-0.8c-1,0-2.1-0.1-3.1-0.1c-1,0-2,0-2.9,0.5c-1.8,1-3.7,2-5.6,3c-0.3,0.2-0.7,0.3-1.1,0.5
			c0.6,0.3,1.3,0.5,1.9,0.6c1.1,0.1,2.2,0,3.3,0c0.5,0,1,0,1.4-0.4c0.1-0.1,0.3-0.2,0.5-0.2c1-0.1,1.9-0.2,2.9-0.1
			C83.9,25,85,25,86,24.6c0.2-0.1,0.4-0.1,0.5-0.1c0.2,0.4,0,0.6-0.3,0.7c-0.3,0.1-0.6,0.2-0.9,0.3c-1.7,0.5-3.4,0.7-5.1,0.9
			c-0.2,0-0.5,0-0.7-0.1C79,25.9,78.5,26,78,26c-0.6,0-1.2,0-1.8,0c-0.1,0-0.2,0.1-0.3,0.1c0,0.1,0,0.2,0,0.2c0,0.1,0.1,0.2,0.2,0.3
			c0.9,1.2,2.1,2.2,3.3,3c0.5,0.3,1,0.6,1.7,0.5c0.3,0,0.7,0,1,0.2c0.5,0.2,1,0.2,1.5,0c0.9-0.2,1.9-0.5,2.8-0.6c2-0.2,4-0.3,6-0.5
			C93,29.3,93.6,29.2,94.3,29.2z M44.7,47.8c0.4,0,0.4,0,0.6-0.2c2.3-1.6,4.4-3.5,6.8-5c2-1.2,3.9-2.5,6.1-3.4
			c0.6-0.2,1.2-0.6,1.8-0.9c-0.7-0.9-1.2-1.1-2.1-1c-0.6,0.1-1.1,0.2-1.7,0.2c-1.3,0.1-2.7,0.3-4-0.1c-0.3-0.1-0.6-0.1-0.8,0.2
			c-1.5,1.4-2.9,2.9-4.1,4.7C46.2,44,45.6,45.9,44.7,47.8C44.6,47.7,44.7,47.7,44.7,47.8z M29.7,161.9c1.1,2,9.3,7.6,10.8,7.7
			c-0.2-0.9-1.1-1.3-1.4-2.1c1.2,0.1,1.3,1.3,2,1.8c0.2-0.3,0.1-0.6,0-0.8c-0.1-0.2-0.3-0.4-0.5-0.6c-0.6-0.6-1.3-1.3-1.9-1.9
			c-1.2-1.4-2.3-2.9-3.5-4.2c-0.9-1.1-2-2-2.8-3.2c-0.1-0.2-0.3-0.4-0.5-0.6C31.2,159.3,30.4,160.6,29.7,161.9z M112.4,30.3
			c0.6,0.2,1,0.3,1.5,0.4c1.2,0.3,2.3,0.6,3.5,0.9c0.3,0.1,0.7,0.1,1,0.2c1.1,0.5,2.3,0.7,3.4,1.1c1.7,0.6,3.6,0.9,5.2,2
			c0.2,0.2,0.4,0.1,0.5-0.2c-0.3-0.6-0.7-1.1-1-1.6c-0.6-1.1-1.5-2-2.6-2.7c-0.3-0.2-0.8-0.3-1.2-0.4c-0.8-0.1-1.6-0.2-2.3-0.4
			c-1.1-0.3-2.2-0.8-3.2-1.4c-0.4-0.3-0.8-0.3-1.2,0c-1.1,0.6-2.2,1.2-3.3,1.8C112.6,30.1,112.6,30.2,112.4,30.3z M134.8,172
			c-1.5,0.2-2.8,0.4-4.2,0.6c-1,0.2-1.9,0.3-2.9,0.6c-0.5,0.1-1.1,0.3-1.5,0.6c-1.3,1.2-2.5,2.5-4,3.5c-0.1,0.1-0.2,0.2-0.4,0.4
			C125.6,177.1,133.9,173,134.8,172z M10.6,103.6c0.1,0,0.1,0,0.2-0.1c0-0.2,0-0.3,0-0.5c0-1.3-0.1-2.6-0.2-3.8
			c-0.1-1.3-0.2-2.5-0.3-3.8c0-0.1-0.2-0.3-0.2-0.3c-0.7,1-1.4,1.9-2.1,2.9c-0.2,0.2-0.2,0.5-0.1,0.8c0.6,1.2,1.1,2.3,1.7,3.5
			C10,102.7,10.3,103.2,10.6,103.6z M139.1,179.2c0.5,0.2,0.8,0.3,1.2,0.4c0.3,0.1,0.5,0,0.7-0.2c0.6-0.7,1.2-1.4,1.7-2.1
			c0.1-0.1,0.1-0.3,0.1-0.5C141.5,177.7,140.4,178.4,139.1,179.2z M9.9,94.7c0.6-0.7,0.5-1.2,0.1-3.2C9.6,92.2,9.5,93.9,9.9,94.7z
			 M174.3,71.5c-1.1-0.6-2.3,0-2.5,1.1c0.4-0.3,0.7-0.5,1.1-0.7C173.2,71.6,173.7,71.6,174.3,71.5z M43.1,170.7
			c-0.3-0.3-0.5-0.6-0.8-0.8c-0.1-0.1-0.3,0-0.4,0.1c0,0,0,0.3,0,0.3C42.2,170.5,42.6,170.8,43.1,170.7z"/>
		<path d="M175.7,113.8c0.7,0.6,1.1,1.4,1.5,2.2c0.3,0.8,0.8,1.4,1.4,2c1.3,1.2,2.6,2.3,3.5,3.8c0.2,0.3,0.3,0.5,0.4,0.8
			c-0.8-0.5-1.2-1.2-1.8-1.9c-0.5-0.7-1.2-1.2-1.8-1.7c-0.1,0.2-0.1,0.2-0.1,0.2c0.4,0.9,0.3,1.9,0.4,2.8c0.1,1.5,0.1,2.9,0.3,4.4
			c0.1,0.6,0.3,1.2,0.5,1.8c0.3,1.1,0.3,2.1,0.3,3.2c-0.1,1.7-0.7,3.2-1.1,4.8c-0.2,1-0.5,1.9-0.8,2.8c-0.1,0.2-0.2,0.4-0.3,0.8
			c-0.2-0.2-0.3-0.3-0.3-0.5c-0.1-0.9-0.2-1.8-0.2-2.8c0-1.1,0-2.2,0-3.3c0-1.6,0.5-2.9,1.1-4.3c0.2-0.6,0.4-1.2,0.4-1.8
			c-0.1-2.1-0.1-4.1-0.2-6.2c0-1-0.5-1.9-0.9-2.8c-0.4-0.7-0.8-1.5-1.1-2.3c-0.2-0.6-0.6-1.2-0.8-1.8
			C175.8,114.1,175.8,113.9,175.7,113.8C175.7,113.8,175.7,113.8,175.7,113.8z"/>
		<path d="M184.8,136.3c-0.1-0.1-0.1-0.2-0.1-0.3c-0.2-1.4-0.5-2.9-0.6-4.3c-0.1-1.6-0.4-3.1-0.4-4.7c0-1.4-0.3-2.8-0.8-4.2
			c0.4,0.4,0.8,0.7,1,1.1c0.5,0.8,1,1.7,1.3,2.5c0.4,1.2,0.6,2.3,0.5,3.6c-0.1,1.6-0.2,3.2-0.5,4.8c-0.1,0.4-0.1,0.9-0.1,1.3
			C184.9,136.3,184.8,136.3,184.8,136.3z"/>
		<path d="M131.4,187.4c-0.9,0.3-1.8,0.6-2.7,0.9c-0.8,0.2-1.5,0.3-2.3,0.4c-0.5,0.1-1,0.2-1.4,0.6c-1.1,0.9-2.3,0.9-3.6,0.5
			c-0.7-0.2-0.8-0.7-0.3-1.3c0.6-0.9,2-1.3,3.1-0.8c0.1,0,0.2,0.1,0.2,0.1c1.1,0.8,2.3,0.6,3.5,0.3c0.9-0.2,1.9-0.5,2.8-0.7
			c0.2,0,0.4,0,0.6,0C131.4,187.3,131.4,187.4,131.4,187.4z"/>
		<path d="M24.5,107c0-0.1,0-0.2,0.1-0.3c1.3-1.3,2.2-2.9,3.2-4.3c0-0.1,0.1-0.1,0.3-0.2c-0.1,0.7-0.5,1.1-0.8,1.6
			c-0.3,0.5-0.6,0.9-1,1.5c0.3,0,0.5,0,0.6-0.1c1.1-0.3,2.2-0.7,3.1-1.4c0.2-0.2,0.5-0.4,0.6-0.6c0.4-0.8,2.1-1.3,3.1-1.2
			c0.3,0.1,0.5,0.5,0.3,0.8c-0.2,0.3-0.5,0.6-0.8,0.8c-0.6,0.4-1.2,0.5-1.9,0.5c-0.7-0.1-1.2,0.2-1.8,0.5c-1,0.5-2,0.9-3,1.2
			c-0.7,0.2-1.3,0.5-1.8,1C24.7,106.9,24.6,107,24.5,107C24.5,107,24.5,107,24.5,107z"/>
		<path d="M77.1,48.4c0.4,0.5,0.3,1,0.1,1.4C77,50.2,77,50.5,77,51c0,0.8-0.5,1.6-1.2,2c-0.2,0.1-0.5,0.3-0.8,0
			c-0.2-0.2-0.4-0.5-0.2-0.8c0.3-0.5,0.6-1,1.1-1.3c0.7-0.4,0.8-1.1,1-1.8C76.9,48.9,77,48.7,77.1,48.4z"/>
		<path d="M28.2,101.8c-0.3-0.8-0.1-1.4,0.5-2c0.3-0.3,0.7-0.6,1-0.8c0.4-0.3,0.8-0.3,1,0c0.2,0.3,0.2,0.6-0.2,1
			C29.9,100.7,29.1,101.3,28.2,101.8z"/>
		<path d="M172.8,61c0.9-0.2,1.7-0.3,2.6-0.5c0.1,0,0.2,0.2,0.4,0.3c-0.1,0.1-0.3,0.3-0.4,0.3c-0.4-0.2-0.7,0-1.1,0.1
			c-0.5,0.1-1,0.2-1.4-0.1C172.8,61.2,172.8,61.1,172.8,61z"/>
		<path d="M103.6,192.8c0.5,0.7,0.2,1.4,0.2,2c0,0.1-0.2,0.3-0.4,0.4c0,0-0.2-0.1-0.3-0.1c0-0.2-0.1-0.5,0-0.6
			C103.6,194.1,103.5,193.5,103.6,192.8z"/>
		<path d="M153.2,150.1c0,0.1,0,0.3,0,0.3c-0.6,0.3-1.2,0.6-1.9,1C151.7,150.8,152.5,150.3,153.2,150.1
			C153.2,150.1,153.2,150.1,153.2,150.1z"/>
	</g>
</g>
</svg>
