<?xml version="1.0" encoding="utf-8"?>
<!-- Generator: Adobe Illustrator 24.0.0, SVG Export Plug-In . SVG Version: 6.00 Build 0)  -->
<svg version="1.0" id="Layer_1" xmlns="http://www.w3.org/2000/svg" xmlns:xlink="http://www.w3.org/1999/xlink" x="0px" y="0px"
	 viewBox="0 0 133.5 70.1" style="enable-background:new 0 0 133.5 70.1;" xml:space="preserve">
<style type="text/css">
	.st0{stroke:#000000;stroke-width:0.5;stroke-linejoin:round;stroke-miterlimit:10;}
	.st1{stroke:#000000;stroke-width:1.5;stroke-linejoin:round;stroke-miterlimit:10;}
</style>
<path class="st0" d="M1.1,11.6c0-1.4,0.3-2.7,0.8-4.1s1.3-2.6,2.2-3.6c1-1.1,2.2-1.9,3.6-2.6c1.4-0.7,3.1-1,4.9-1
	c2.2,0,4,0.5,5.5,1.4c1.5,0.9,2.7,2.1,3.4,3.6L20.1,6c-0.4-0.8-0.9-1.5-1.5-2s-1.2-1-1.9-1.3C16,2.4,15.3,2.1,14.6,2
	c-0.7-0.1-1.5-0.2-2.2-0.2c-1.6,0-2.9,0.3-4.1,0.9C7.1,3.2,6.1,4,5.3,4.9c-0.8,0.9-1.4,2-1.9,3.2C3,9.3,2.8,10.5,2.8,11.7
	c0,1.3,0.3,2.6,0.8,3.8c0.5,1.2,1.2,2.3,2.1,3.2c0.9,0.9,1.9,1.7,3.1,2.2c1.2,0.6,2.5,0.8,3.8,0.8c0.7,0,1.5-0.1,2.2-0.3
	c0.8-0.2,1.5-0.4,2.2-0.8c0.7-0.4,1.4-0.8,2-1.4c0.6-0.6,1.1-1.2,1.5-2L22,18c-0.4,0.9-1,1.6-1.7,2.3S18.9,21.5,18,22
	c-0.9,0.4-1.8,0.8-2.8,1c-1,0.2-1.9,0.3-2.9,0.3c-1.7,0-3.2-0.3-4.6-1c-1.4-0.7-2.6-1.6-3.6-2.7c-1-1.1-1.8-2.4-2.3-3.8
	C1.3,14.5,1.1,13.1,1.1,11.6z"/>
<path class="st0" d="M51.7,23.1V0.4h1.7v22.7H51.7z"/>
<path class="st0" d="M82.3,23.1V0.4h1.7v22.7H82.3z"/>
<path class="st0" d="M92.3,3.5v19.7h-1.7V0.4h1.3l17.1,20v-20h1.7v22.7H109L92.3,3.5z"/>
<path class="st1" d="M16.9,34.7c-1.6-1.6-3.8-2.5-6.7-2.5c-2.4,0-4.1,0.4-5.2,1.3s-1.6,2-1.6,3.4c0,0.7,0.1,1.3,0.4,1.8
	c0.3,0.5,0.7,0.9,1.3,1.2c0.6,0.3,1.3,0.6,2.2,0.9c0.9,0.2,2,0.5,3.2,0.7c1.3,0.3,2.5,0.5,3.6,0.8c1,0.3,1.9,0.7,2.7,1.2
	c0.7,0.5,1.3,1,1.7,1.7c0.4,0.7,0.6,1.5,0.6,2.5s-0.2,1.9-0.6,2.6c-0.4,0.7-1,1.4-1.8,1.9c-0.8,0.5-1.7,0.9-2.7,1.1
	c-1.1,0.3-2.2,0.4-3.5,0.4c-3.8,0-7-1.1-9.6-3.4l0.9-1.3c1,1,2.3,1.8,3.8,2.4c1.5,0.6,3.1,0.9,5,0.9c2.1,0,3.8-0.4,5-1.1
	c1.2-0.7,1.8-1.8,1.8-3.3c0-0.7-0.2-1.4-0.5-1.9c-0.3-0.5-0.8-1-1.4-1.4c-0.6-0.4-1.4-0.7-2.4-1c-0.9-0.3-2.1-0.5-3.3-0.8
	c-1.3-0.3-2.4-0.5-3.4-0.8c-1-0.3-1.8-0.7-2.5-1.1c-0.7-0.4-1.2-1-1.5-1.6c-0.3-0.6-0.5-1.4-0.5-2.3c0-1,0.2-1.9,0.6-2.7
	c0.4-0.8,1-1.5,1.8-2c0.8-0.5,1.7-1,2.7-1.2c1-0.3,2.2-0.4,3.5-0.4c1.6,0,3,0.2,4.2,0.7c1.2,0.4,2.4,1.1,3.4,2L16.9,34.7z"/>
<path class="st1" d="M22.4,53.7h-1.8l10.3-22.8h1.4l10.3,22.8h-1.9l-9.2-20.8L22.4,53.7z"/>
<g>
	<path d="M1.8,70H1.1L4,63.2h0.5L7.3,70H6.6l-2.4-6L1.8,70z"/>
	<path d="M17.9,70v-6.8h2.9c0.3,0,0.6,0.1,0.8,0.2c0.2,0.1,0.5,0.3,0.6,0.5c0.2,0.2,0.3,0.4,0.4,0.7c0.1,0.3,0.1,0.5,0.1,0.8
		c0,0.2,0,0.5-0.1,0.7c-0.1,0.2-0.2,0.4-0.3,0.6s-0.3,0.3-0.5,0.5c-0.2,0.1-0.4,0.2-0.6,0.3l1.7,2.6h-0.8l-1.6-2.5h-2V70H17.9z
		 M18.6,66.9h2.2c0.2,0,0.4,0,0.5-0.1c0.2-0.1,0.3-0.2,0.4-0.3c0.1-0.1,0.2-0.3,0.3-0.5c0.1-0.2,0.1-0.4,0.1-0.6s0-0.4-0.1-0.6
		c-0.1-0.2-0.2-0.4-0.3-0.5c-0.1-0.1-0.3-0.3-0.4-0.3c-0.2-0.1-0.3-0.1-0.5-0.1h-2.2V66.9z"/>
	<path d="M33.3,66.6c0-0.4,0.1-0.8,0.2-1.2c0.1-0.4,0.4-0.8,0.6-1.1c0.3-0.3,0.6-0.6,1-0.8s0.9-0.3,1.4-0.3c0.6,0,1.1,0.1,1.5,0.4
		c0.4,0.3,0.7,0.6,1,1.1L38.5,65c-0.1-0.2-0.2-0.4-0.4-0.6c-0.2-0.2-0.3-0.3-0.5-0.4c-0.2-0.1-0.4-0.2-0.6-0.2
		c-0.2,0-0.4-0.1-0.6-0.1c-0.4,0-0.8,0.1-1.1,0.2c-0.3,0.2-0.6,0.4-0.8,0.7c-0.2,0.3-0.4,0.6-0.5,0.9c-0.1,0.3-0.2,0.7-0.2,1
		c0,0.4,0.1,0.7,0.2,1.1c0.1,0.3,0.3,0.6,0.5,0.9c0.2,0.3,0.5,0.5,0.8,0.6c0.3,0.2,0.6,0.2,1,0.2c0.2,0,0.4,0,0.6-0.1
		c0.2,0,0.4-0.1,0.6-0.2c0.2-0.1,0.4-0.2,0.5-0.4s0.3-0.3,0.4-0.6l0.6,0.3c-0.1,0.3-0.3,0.5-0.5,0.7c-0.2,0.2-0.4,0.4-0.7,0.5
		s-0.5,0.2-0.8,0.3c-0.3,0.1-0.5,0.1-0.8,0.1c-0.5,0-0.9-0.1-1.3-0.3s-0.7-0.5-1-0.8c-0.3-0.3-0.5-0.7-0.7-1.1
		C33.4,67.4,33.3,67,33.3,66.6z"/>
	<path d="M55.3,63.2V70h-0.7v-3.2h-4V70h-0.7v-6.8h0.7v3h4v-3H55.3z"/>
	<path d="M66.6,70v-6.8h0.7V70H66.6z"/>
	<path d="M83.3,63.8h-2.4V70h-0.7v-6.2h-2.4v-0.6h5.5V63.8z"/>
	<path d="M98.5,69.4V70h-4.6v-6.8h4.5v0.6h-3.8v2.4h3.3v0.6h-3.3v2.6H98.5z"/>
	<path d="M108.9,66.6c0-0.4,0.1-0.8,0.2-1.2c0.1-0.4,0.4-0.8,0.6-1.1c0.3-0.3,0.6-0.6,1-0.8s0.9-0.3,1.4-0.3c0.6,0,1.1,0.1,1.5,0.4
		c0.4,0.3,0.7,0.6,1,1.1l-0.5,0.3c-0.1-0.2-0.2-0.4-0.4-0.6c-0.2-0.2-0.3-0.3-0.5-0.4c-0.2-0.1-0.4-0.2-0.6-0.2
		c-0.2,0-0.4-0.1-0.6-0.1c-0.4,0-0.8,0.1-1.1,0.2c-0.3,0.2-0.6,0.4-0.8,0.7c-0.2,0.3-0.4,0.6-0.5,0.9c-0.1,0.3-0.2,0.7-0.2,1
		c0,0.4,0.1,0.7,0.2,1.1c0.1,0.3,0.3,0.6,0.5,0.9c0.2,0.3,0.5,0.5,0.8,0.6c0.3,0.2,0.6,0.2,1,0.2c0.2,0,0.4,0,0.6-0.1
		c0.2,0,0.4-0.1,0.6-0.2c0.2-0.1,0.4-0.2,0.5-0.4s0.3-0.3,0.4-0.6l0.6,0.3c-0.1,0.3-0.3,0.5-0.5,0.7c-0.2,0.2-0.4,0.4-0.7,0.5
		s-0.5,0.2-0.8,0.3c-0.3,0.1-0.5,0.1-0.8,0.1c-0.5,0-0.9-0.1-1.3-0.3s-0.7-0.5-1-0.8c-0.3-0.3-0.5-0.7-0.7-1.1
		C109,67.4,108.9,67,108.9,66.6z"/>
	<path d="M130.3,63.8h-2.4V70h-0.7v-6.2h-2.4v-0.6h5.5V63.8z"/>
</g>
<g>
	<polygon class="st1" points="67.2,32.4 81.4,32.4 81.4,30.9 65.5,30.9 65.5,53.7 81.7,53.7 81.7,52.2 67.2,52.2 	"/>
	<rect x="69.9" y="41.3" class="st1" width="7.7" height="1.4"/>
</g>
<g>
	<rect x="111.4" y="30.9" class="st1" width="1.7" height="22.8"/>
	<polygon class="st1" points="128.5,30.9 128.5,41.3 115.7,41.3 115.7,42.8 128.5,42.8 128.5,53.7 130.2,53.7 130.2,30.9 	"/>
</g>
<g>
	<path class="st1" d="M101.9,50.6c-0.4,0.3-0.8,0.5-1.2,0.7c-1.3,0.6-2.7,1-4.2,1c-1.4,0-2.6-0.3-3.8-0.8c-1.2-0.5-2.2-1.3-3.1-2.2
		s-1.6-2-2.1-3.2c-0.5-1.2-0.8-2.5-0.8-3.8c0-1.3,0.2-2.5,0.7-3.7c0.4-1.2,1.1-2.3,1.9-3.2c0.8-0.9,1.8-1.7,3-2.3
		c1.2-0.6,2.4-0.9,3.9-0.9c1.7,0,3.2,0.3,4.6,1c1.4,0.7,2.5,1.8,3.3,3.3l1.4-0.8c-0.4-0.7-0.9-1.4-1.4-2c-0.6-0.6-1.2-1.1-2-1.6
		c-0.8-0.4-1.6-0.8-2.6-1c-1-0.2-2.1-0.4-3.3-0.4c-1.6,0-3.1,0.3-4.5,0.9c-1.4,0.6-2.5,1.5-3.5,2.5c-1,1.1-1.8,2.3-2.3,3.7
		c-0.6,1.4-0.8,2.8-0.8,4.3c0,1.4,0.3,2.8,0.9,4.2c0.6,1.4,1.4,2.6,2.4,3.7c1,1.1,2.2,2,3.6,2.6c1.4,0.7,2.9,1,4.6,1
		c2,0,3.8-0.5,5.5-1.6V50.6z"/>
	<polygon class="st1" points="104.5,53.7 106.1,53.7 106.1,42.6 99,42.6 99,43.9 104.5,43.9 	"/>
</g>
<g>
	<polygon class="st0" points="118.8,1.9 133,1.9 133,0.4 117.1,0.4 117.1,23.1 133.3,23.1 133.3,21.7 118.8,21.7 	"/>
	<rect x="120.6" y="10.8" class="st0" width="9.1" height="1.4"/>
</g>
<path class="st0" d="M61.6,1.9h8.3c0.8,0,1.5,0.2,2.1,0.5c0.7,0.3,1.2,0.7,1.7,1.2c0.5,0.5,0.9,1.1,1.2,1.8c0.3,0.7,0.4,1.4,0.4,2.1
	c0,0.7-0.1,1.4-0.4,2.1c-0.2,0.7-0.6,1.3-1,1.8c-0.5,0.5-1,0.9-1.6,1.3c-0.6,0.3-1.3,0.5-2.1,0.5h-6.7v1.5h6.1l5.9,8.6h2l-6.1-8.8
	c0.8-0.1,1.6-0.4,2.3-0.8c0.7-0.4,1.3-0.9,1.8-1.5c0.5-0.6,0.9-1.3,1.2-2.1c0.3-0.8,0.4-1.6,0.4-2.4c0-0.9-0.2-1.7-0.5-2.5
	c-0.4-0.8-0.8-1.6-1.5-2.3c-0.6-0.7-1.4-1.2-2.2-1.6C72,0.6,71,0.4,70,0.4H59.9v22.8h1.7V1.9z"/>
<g>
	<rect x="26.4" y="0.4" class="st0" width="1.7" height="22.8"/>
	<polygon class="st0" points="43.5,0.4 43.5,10.8 29.9,10.8 29.9,12.3 43.5,12.3 43.5,23.2 45.3,23.2 45.3,0.4 	"/>
</g>
<g>
	<polygon class="st1" points="54.1,42.5 61.9,30.9 60,30.9 53.1,41.1 	"/>
	<polygon class="st1" points="43,30.9 41,30.9 50.6,45 50.6,53.7 52.3,53.7 52.3,45.1 	"/>
</g>
</svg>
