<?xml version="1.0" encoding="utf-8"?>
<!-- Generator: Adobe Illustrator 24.0.0, SVG Export Plug-In . SVG Version: 6.00 Build 0)  -->
<svg version="1.0" id="Layer_1" xmlns="http://www.w3.org/2000/svg" xmlns:xlink="http://www.w3.org/1999/xlink" x="0px" y="0px"
	 viewBox="0 0 132.3 69.9" style="enable-background:new 0 0 132.3 69.9;" xml:space="preserve">
<style type="text/css">
	.st0{stroke:#000000;stroke-linejoin:round;stroke-miterlimit:10;}
</style>
<g>
	<path d="M3.8,69.9H2.5l2.6-6.2h1.1l2.6,6.2H7.4L5.6,65L3.8,69.9z"/>
	<path d="M18.9,69.9v-6.2h2.9c0.3,0,0.6,0.1,0.8,0.2c0.3,0.1,0.5,0.3,0.7,0.5c0.2,0.2,0.3,0.4,0.4,0.7c0.1,0.2,0.2,0.5,0.2,0.8
		c0,0.4-0.1,0.8-0.3,1.1c-0.2,0.3-0.5,0.6-0.9,0.7l1.6,2.3h-1.5l-1.4-2.1h-1.3v2.1H18.9z M20.1,66.7h1.6c0.1,0,0.2,0,0.3-0.1
		c0.1-0.1,0.2-0.1,0.3-0.2c0.1-0.1,0.1-0.2,0.2-0.3c0-0.1,0.1-0.3,0.1-0.4c0-0.1,0-0.3-0.1-0.4c-0.1-0.1-0.1-0.2-0.2-0.3
		c-0.1-0.1-0.2-0.2-0.3-0.2c-0.1,0-0.2-0.1-0.3-0.1h-1.6V66.7z"/>
	<path d="M34.2,66.7c0-0.4,0.1-0.8,0.2-1.1c0.1-0.4,0.4-0.7,0.6-1c0.3-0.3,0.6-0.5,1-0.7c0.4-0.2,0.8-0.3,1.4-0.3
		c0.6,0,1.1,0.1,1.5,0.4c0.4,0.3,0.8,0.6,1,1l-1,0.6c-0.1-0.2-0.2-0.3-0.3-0.4c-0.1-0.1-0.2-0.2-0.4-0.3s-0.3-0.1-0.4-0.2
		c-0.2,0-0.3,0-0.4,0c-0.3,0-0.6,0.1-0.8,0.2c-0.2,0.1-0.4,0.3-0.6,0.5c-0.2,0.2-0.3,0.4-0.3,0.7c-0.1,0.2-0.1,0.5-0.1,0.7
		c0,0.3,0,0.5,0.1,0.8c0.1,0.3,0.2,0.5,0.4,0.7c0.2,0.2,0.4,0.3,0.6,0.5c0.2,0.1,0.5,0.2,0.8,0.2c0.1,0,0.3,0,0.4-0.1
		c0.2,0,0.3-0.1,0.4-0.2c0.1-0.1,0.3-0.2,0.4-0.3c0.1-0.1,0.2-0.3,0.3-0.4l1.1,0.6c-0.1,0.2-0.2,0.4-0.4,0.6
		c-0.2,0.2-0.4,0.3-0.7,0.5c-0.2,0.1-0.5,0.2-0.8,0.3c-0.3,0.1-0.5,0.1-0.8,0.1c-0.5,0-0.9-0.1-1.3-0.3s-0.7-0.4-1-0.7
		c-0.3-0.3-0.5-0.6-0.6-1C34.3,67.5,34.2,67.1,34.2,66.7z"/>
	<path d="M55.9,63.6v6.2h-1.3v-2.7h-3v2.7h-1.3v-6.2h1.3v2.5h3v-2.5H55.9z"/>
	<path d="M66.6,69.9v-6.2h1.3v6.2H66.6z"/>
	<path d="M83.7,64.7h-2.1v5.2h-1.3v-5.2h-2.1v-1.1h5.5V64.7z"/>
	<path d="M98.6,68.8v1.1h-4.6v-6.2h4.5v1.1h-3.2v1.5h2v1h-2v1.6H98.6z"/>
	<path d="M108.6,66.7c0-0.4,0.1-0.8,0.2-1.1c0.1-0.4,0.4-0.7,0.6-1s0.6-0.5,1-0.7c0.4-0.2,0.8-0.3,1.4-0.3c0.6,0,1.1,0.1,1.5,0.4
		c0.4,0.3,0.8,0.6,1,1l-1,0.6c-0.1-0.2-0.2-0.3-0.3-0.4c-0.1-0.1-0.2-0.2-0.4-0.3s-0.3-0.1-0.4-0.2c-0.2,0-0.3,0-0.4,0
		c-0.3,0-0.6,0.1-0.8,0.2c-0.2,0.1-0.4,0.3-0.6,0.5c-0.2,0.2-0.3,0.4-0.3,0.7c-0.1,0.2-0.1,0.5-0.1,0.7c0,0.3,0,0.5,0.1,0.8
		c0.1,0.3,0.2,0.5,0.4,0.7c0.2,0.2,0.4,0.3,0.6,0.5c0.2,0.1,0.5,0.2,0.8,0.2c0.1,0,0.3,0,0.4-0.1c0.2,0,0.3-0.1,0.4-0.2
		c0.1-0.1,0.3-0.2,0.4-0.3s0.2-0.3,0.3-0.4l1.1,0.6c-0.1,0.2-0.2,0.4-0.4,0.6c-0.2,0.2-0.4,0.3-0.7,0.5c-0.2,0.1-0.5,0.2-0.8,0.3
		c-0.3,0.1-0.5,0.1-0.8,0.1c-0.5,0-0.9-0.1-1.3-0.3c-0.4-0.2-0.7-0.4-1-0.7c-0.3-0.3-0.5-0.6-0.6-1
		C108.7,67.5,108.6,67.1,108.6,66.7z"/>
	<path d="M129.6,64.7h-2.1v5.2h-1.3v-5.2h-2.1v-1.1h5.5V64.7z"/>
</g>
<g>
	<path class="st0" d="M0.5,11.8c0-1.4,0.3-2.7,0.8-4.1s1.3-2.6,2.2-3.6s2.2-2,3.6-2.6s3-1,4.9-1c2.2,0,4,0.5,5.5,1.4
		C19,2.8,20.1,4,20.8,5.5l-1,0.4c-0.5-0.8-1-1.5-1.6-2c-0.6-0.6-1.3-1-2-1.3c-0.7-0.3-1.4-0.6-2.2-0.7c-0.8-0.1-1.5-0.2-2.3-0.2
		c-1.6,0-3.1,0.3-4.3,0.9C6.2,3.1,5.2,3.9,4.3,4.9c-0.9,1-1.5,2.1-2,3.3s-0.7,2.5-0.7,3.7c0,1.4,0.3,2.7,0.8,4
		c0.5,1.3,1.2,2.4,2.2,3.4s2,1.7,3.3,2.3c1.3,0.6,2.6,0.9,4,0.9c0.8,0,1.6-0.1,2.4-0.3c0.8-0.2,1.6-0.5,2.3-0.8s1.4-0.8,2.1-1.4
		c0.6-0.6,1.2-1.3,1.6-2.1l1,0.4c-0.4,0.9-1,1.6-1.7,2.3c-0.7,0.7-1.5,1.2-2.4,1.7c-0.9,0.4-1.8,0.8-2.7,1c-1,0.2-1.9,0.3-2.8,0.3
		c-1.6,0-3.2-0.3-4.5-1s-2.6-1.6-3.6-2.7c-1-1.1-1.8-2.3-2.3-3.7C0.8,14.7,0.5,13.3,0.5,11.8z"/>
	<path class="st0" d="M51.1,23.3V0.7h1.2v22.7H51.1z"/>
	<path class="st0" d="M81.3,23.3V0.7h1.2v22.7H81.3z"/>
	<path class="st0" d="M90.3,2.7v20.6h-1.2V0.6H90l17.8,21V0.7h1.2v22.7h-1.2L90.3,2.7z"/>
	<g>
		<rect x="26" y="0.6" class="st0" width="1.2" height="22.7"/>
		<polygon class="st0" points="43.3,0.6 43.3,11.2 28.7,11.2 28.7,12.2 43.3,12.2 43.3,23.3 44.5,23.3 44.5,0.6 		"/>
	</g>
	<path class="st0" d="M60.2,1.7H69c0.8,0,1.5,0.2,2.2,0.5c0.7,0.3,1.3,0.8,1.8,1.3s0.9,1.2,1.2,1.9c0.3,0.7,0.5,1.5,0.5,2.2
		c0,0.7-0.1,1.5-0.4,2.2c-0.3,0.7-0.6,1.4-1.1,1.9c-0.5,0.6-1.1,1-1.7,1.3c-0.7,0.3-1.4,0.5-2.3,0.5h-7.5v1h6.9l6,8.8h1.4l-6.1-8.9
		c0.9-0.1,1.7-0.3,2.4-0.7s1.4-0.9,1.9-1.5c0.5-0.6,0.9-1.3,1.2-2.1c0.3-0.8,0.4-1.6,0.4-2.5c0-0.9-0.2-1.7-0.5-2.5S74.6,3.5,74,2.8
		c-0.6-0.7-1.3-1.2-2.2-1.6C70.9,0.8,70,0.6,69,0.6H59v22.7h1.2V1.7z"/>
	<g>
		<polygon class="st0" points="116.9,1.7 131.5,1.7 131.5,0.6 115.7,0.6 115.7,23.3 131.8,23.3 131.8,22.3 116.9,22.3 		"/>
		<rect x="118.5" y="11.2" class="st0" width="8.2" height="1"/>
	</g>
</g>
<g>
	<path class="st0" d="M17.6,34.7c-0.9-0.9-1.8-1.6-2.9-1.9c-1.1-0.4-2.3-0.6-3.8-0.6c-2.6,0-4.5,0.5-5.6,1.4
		c-1.2,0.9-1.7,2.1-1.7,3.7c0,0.8,0.1,1.4,0.4,1.9c0.3,0.5,0.7,1,1.3,1.3c0.6,0.4,1.4,0.7,2.3,0.9c0.9,0.2,2,0.5,3.3,0.8
		c1.3,0.3,2.5,0.5,3.6,0.8c1.1,0.3,2,0.7,2.7,1.1c0.8,0.5,1.3,1,1.7,1.7c0.4,0.7,0.6,1.5,0.6,2.5c0,1-0.2,1.8-0.6,2.5
		s-1,1.3-1.7,1.8c-0.8,0.5-1.7,0.9-2.7,1.1s-2.2,0.4-3.5,0.4c-1.9,0-3.7-0.3-5.2-0.8c-1.5-0.6-3-1.4-4.3-2.6L2.2,50
		c1.1,1.1,2.4,1.9,3.9,2.5s3.1,0.8,5,0.8c2.3,0,4.1-0.4,5.4-1.2c1.3-0.8,2-2,2-3.6c0-0.8-0.2-1.5-0.5-2.1s-0.8-1-1.5-1.4
		c-0.6-0.4-1.5-0.7-2.4-1c-1-0.3-2.1-0.6-3.5-0.8C9.2,42.9,8,42.6,7,42.4s-1.9-0.6-2.6-1.1c-0.7-0.4-1.2-0.9-1.6-1.6
		c-0.4-0.6-0.5-1.4-0.5-2.3c0-1,0.2-1.9,0.6-2.7c0.4-0.8,1-1.4,1.7-2c0.7-0.5,1.6-0.9,2.7-1.2c1-0.3,2.2-0.4,3.5-0.4
		c1.6,0,2.9,0.2,4.1,0.6c1.2,0.4,2.2,1.1,3.2,2L17.6,34.7z"/>
	<path class="st0" d="M22.5,54.1h-1.3l10.5-22.7h1l10.5,22.7h-1.3l-9.6-21.3L22.5,54.1z"/>
	<g>
		<polygon class="st0" points="67.3,32.4 81.8,32.4 81.8,31.3 66.1,31.3 66.1,54.1 82.1,54.1 82.1,53 67.3,53 		"/>
		<rect x="68.8" y="41.9" class="st0" width="8.2" height="1"/>
	</g>
	<polygon class="st0" points="105.4,54.1 106.5,54.1 106.5,43.1 99.8,43.1 99.8,44.1 105.4,44.1 	"/>
	<polygon class="st0" points="52,44.2 43,31.3 41.7,31.3 51.4,45.3 51.4,54.1 52.6,54.1 52.6,45.4 	"/>
	<g>
		<rect x="112.3" y="30.9" class="st0" width="1.2" height="22.7"/>
		<polygon class="st0" points="129.6,30.9 129.6,41.5 115,41.5 115,42.5 129.6,42.5 129.6,53.6 130.8,53.6 130.8,30.9 		"/>
	</g>
	<polygon class="st0" points="53.5,44 62.3,31.3 61,31.3 52.9,42.9 	"/>
	<path class="st0" d="M103.9,50.5c-0.8,0.7-1.6,1.2-2.5,1.6c-1.4,0.7-2.8,1-4.4,1c-1.4,0-2.8-0.3-4-0.9c-1.3-0.6-2.3-1.3-3.3-2.3
		c-0.9-1-1.7-2.1-2.2-3.3c-0.5-1.3-0.8-2.6-0.8-4c0-1.3,0.2-2.6,0.7-3.8s1.1-2.4,2-3.3c0.9-1,1.9-1.8,3.1-2.4
		c1.2-0.6,2.6-0.9,4.1-0.9c1.8,0,3.4,0.3,4.8,1c1.4,0.7,2.6,1.8,3.5,3.4l1-0.5c-0.4-0.7-0.9-1.4-1.4-2s-1.2-1.1-1.9-1.6
		c-0.8-0.4-1.6-0.8-2.6-1s-2.1-0.4-3.3-0.4c-1.6,0-3.1,0.3-4.5,1s-2.5,1.5-3.5,2.6c-1,1.1-1.7,2.3-2.3,3.7c-0.5,1.4-0.8,2.8-0.8,4.3
		c0,1.4,0.3,2.8,0.9,4.2c0.6,1.4,1.4,2.6,2.4,3.7s2.2,2,3.6,2.6s2.9,1,4.6,1c2.5,0,4.8-0.8,6.9-2.5V50.5z"/>
</g>
</svg>
