<?xml version="1.0" encoding="utf-8"?>
<!-- Generator: Adobe Illustrator 24.0.0, SVG Export Plug-In . SVG Version: 6.00 Build 0)  -->
<svg version="1.0" id="Layer_1" xmlns="http://www.w3.org/2000/svg" xmlns:xlink="http://www.w3.org/1999/xlink" x="0px" y="0px"
	 viewBox="0 0 272.7 41.4" style="enable-background:new 0 0 272.7 41.4;" xml:space="preserve">
<path d="M0,11.7c0-1.4,0.3-2.7,0.8-4.1S2,5,3,4s2.2-2,3.6-2.6s3-1,4.9-1c2.2,0,4,0.5,5.5,1.4c1.5,0.9,2.6,2.1,3.4,3.6l-1,0.4
	c-0.5-0.8-1-1.5-1.6-2c-0.6-0.6-1.3-1-2-1.3C15,2,14.3,1.8,13.6,1.6c-0.8-0.1-1.5-0.2-2.3-0.2C9.7,1.4,8.3,1.7,7,2.3
	C5.7,2.9,4.7,3.7,3.8,4.7c-0.9,1-1.5,2.1-2,3.3s-0.7,2.5-0.7,3.7c0,1.4,0.3,2.7,0.8,4c0.5,1.3,1.2,2.4,2.2,3.4s2,1.7,3.3,2.3
	c1.3,0.6,2.6,0.9,4,0.9c0.8,0,1.6-0.1,2.4-0.3c0.8-0.2,1.6-0.5,2.3-0.8s1.4-0.8,2.1-1.4c0.6-0.6,1.2-1.3,1.6-2.1l1,0.4
	c-0.4,0.9-1,1.6-1.7,2.3c-0.7,0.7-1.5,1.2-2.4,1.7c-0.9,0.4-1.8,0.8-2.7,1c-1,0.2-1.9,0.3-2.8,0.3c-1.6,0-3.2-0.3-4.5-1
	s-2.6-1.6-3.6-2.7c-1-1.1-1.8-2.3-2.3-3.7C0.3,14.5,0,13.1,0,11.7z"/>
<path d="M50.6,23.2V0.5h1.2v22.7H50.6z"/>
<path d="M80.8,23.2V0.5h1.2v22.7H80.8z"/>
<path d="M89.8,2.6v20.6h-1.2V0.5h0.9l17.8,21V0.5h1.2v22.7h-1.2L89.8,2.6z"/>
<path d="M159.5,3.8c-0.9-0.9-1.8-1.6-2.9-1.9c-1.1-0.4-2.3-0.6-3.8-0.6c-2.6,0-4.5,0.5-5.6,1.4c-1.2,0.9-1.7,2.1-1.7,3.7
	c0,0.8,0.1,1.4,0.4,1.9c0.3,0.5,0.7,1,1.3,1.3c0.6,0.4,1.4,0.7,2.3,0.9c0.9,0.2,2,0.5,3.3,0.8c1.3,0.3,2.5,0.5,3.6,0.8
	c1.1,0.3,2,0.7,2.7,1.1c0.8,0.5,1.3,1,1.7,1.7c0.4,0.7,0.6,1.5,0.6,2.5c0,1-0.2,1.8-0.6,2.5s-1,1.3-1.7,1.8
	c-0.8,0.5-1.7,0.9-2.7,1.1s-2.2,0.4-3.5,0.4c-1.9,0-3.7-0.3-5.2-0.8c-1.5-0.6-3-1.4-4.3-2.6l0.7-0.8c1.1,1.1,2.4,1.9,3.9,2.5
	s3.1,0.8,5,0.8c2.3,0,4.1-0.4,5.4-1.2c1.3-0.8,2-2,2-3.6c0-0.8-0.2-1.5-0.5-2.1c-0.3-0.6-0.8-1-1.5-1.4c-0.6-0.4-1.5-0.7-2.4-1
	c-1-0.3-2.1-0.6-3.5-0.8c-1.3-0.3-2.5-0.5-3.5-0.8s-1.9-0.6-2.6-1.1c-0.7-0.4-1.2-0.9-1.6-1.6c-0.4-0.6-0.5-1.4-0.5-2.3
	c0-1,0.2-1.9,0.6-2.7c0.4-0.8,1-1.4,1.7-2c0.7-0.5,1.6-0.9,2.7-1.2c1-0.3,2.2-0.4,3.5-0.4c1.6,0,2.9,0.2,4.1,0.6
	c1.2,0.4,2.2,1.1,3.2,2L159.5,3.8z"/>
<path d="M164.4,23.2h-1.3l10.5-22.7h1l10.5,22.7h-1.3l-9.6-21.3L164.4,23.2z"/>
<g>
	<path d="M81,41.4h-1.3l2.4-5.7h1l2.4,5.7h-1.3l-1.6-4.5L81,41.4z"/>
	<path d="M94.9,41.4v-5.7h2.7c0.3,0,0.5,0.1,0.8,0.2c0.2,0.1,0.4,0.3,0.6,0.4c0.2,0.2,0.3,0.4,0.4,0.6c0.1,0.2,0.1,0.5,0.1,0.7
		c0,0.4-0.1,0.7-0.3,1c-0.2,0.3-0.5,0.5-0.8,0.7l1.4,2.2h-1.3l-1.3-1.9H96v1.9H94.9z M96,38.5h1.5c0.1,0,0.2,0,0.3-0.1
		c0.1,0,0.2-0.1,0.2-0.2c0.1-0.1,0.1-0.2,0.2-0.3c0-0.1,0.1-0.2,0.1-0.4c0-0.1,0-0.3-0.1-0.4c0-0.1-0.1-0.2-0.2-0.3
		c-0.1-0.1-0.2-0.1-0.3-0.2c-0.1,0-0.2-0.1-0.3-0.1H96V38.5z"/>
	<path d="M108.9,38.5c0-0.4,0.1-0.7,0.2-1c0.1-0.3,0.3-0.6,0.6-0.9c0.3-0.3,0.6-0.5,0.9-0.7c0.4-0.2,0.8-0.3,1.2-0.3
		c0.5,0,1,0.1,1.4,0.3c0.4,0.2,0.7,0.5,0.9,0.9l-0.9,0.6c-0.1-0.2-0.2-0.3-0.3-0.4s-0.2-0.2-0.4-0.3c-0.1-0.1-0.3-0.1-0.4-0.1
		c-0.1,0-0.3,0-0.4,0c-0.3,0-0.5,0.1-0.7,0.2c-0.2,0.1-0.4,0.3-0.5,0.4c-0.1,0.2-0.2,0.4-0.3,0.6c-0.1,0.2-0.1,0.5-0.1,0.7
		c0,0.3,0,0.5,0.1,0.7c0.1,0.2,0.2,0.4,0.4,0.6c0.2,0.2,0.3,0.3,0.5,0.4c0.2,0.1,0.4,0.2,0.7,0.2c0.1,0,0.3,0,0.4,0
		c0.1,0,0.3-0.1,0.4-0.2c0.1-0.1,0.2-0.2,0.4-0.3c0.1-0.1,0.2-0.2,0.3-0.4l1,0.5c-0.1,0.2-0.2,0.4-0.4,0.6c-0.2,0.2-0.4,0.3-0.6,0.4
		c-0.2,0.1-0.5,0.2-0.7,0.3c-0.2,0.1-0.5,0.1-0.7,0.1c-0.4,0-0.8-0.1-1.2-0.3c-0.4-0.2-0.7-0.4-0.9-0.7c-0.3-0.3-0.5-0.6-0.6-0.9
		C109,39.2,108.9,38.8,108.9,38.5z"/>
	<path d="M128.9,35.6v5.7h-1.2v-2.4h-2.8v2.4h-1.2v-5.7h1.2V38h2.8v-2.3H128.9z"/>
	<path d="M138.8,41.4v-5.7h1.2v5.7H138.8z"/>
	<path d="M154.5,36.6h-2v4.8h-1.2v-4.8h-2v-1h5.1V36.6z"/>
	<path d="M168.1,40.4v1h-4.3v-5.7h4.2v1h-3V38h1.8v0.9h-1.8v1.5H168.1z"/>
	<path d="M177.4,38.5c0-0.4,0.1-0.7,0.2-1c0.1-0.3,0.3-0.6,0.6-0.9s0.6-0.5,0.9-0.7c0.4-0.2,0.8-0.3,1.2-0.3c0.5,0,1,0.1,1.4,0.3
		c0.4,0.2,0.7,0.5,0.9,0.9l-0.9,0.6c-0.1-0.2-0.2-0.3-0.3-0.4c-0.1-0.1-0.2-0.2-0.4-0.3c-0.1-0.1-0.3-0.1-0.4-0.1
		c-0.1,0-0.3,0-0.4,0c-0.3,0-0.5,0.1-0.7,0.2c-0.2,0.1-0.4,0.3-0.5,0.4c-0.1,0.2-0.2,0.4-0.3,0.6c-0.1,0.2-0.1,0.5-0.1,0.7
		c0,0.3,0,0.5,0.1,0.7c0.1,0.2,0.2,0.4,0.4,0.6c0.2,0.2,0.3,0.3,0.5,0.4c0.2,0.1,0.4,0.2,0.7,0.2c0.1,0,0.3,0,0.4,0
		c0.1,0,0.3-0.1,0.4-0.2s0.2-0.2,0.4-0.3c0.1-0.1,0.2-0.2,0.3-0.4l1,0.5c-0.1,0.2-0.2,0.4-0.4,0.6c-0.2,0.2-0.4,0.3-0.6,0.4
		c-0.2,0.1-0.5,0.2-0.7,0.3c-0.2,0.1-0.5,0.1-0.7,0.1c-0.4,0-0.8-0.1-1.2-0.3c-0.4-0.2-0.7-0.4-0.9-0.7c-0.3-0.3-0.5-0.6-0.6-0.9
		C177.4,39.2,177.4,38.8,177.4,38.5z"/>
	<path d="M196.7,36.6h-2v4.8h-1.2v-4.8h-2v-1h5.1V36.6z"/>
</g>
<g>
	<rect x="25.5" y="0.5" width="1.2" height="22.7"/>
	<polygon points="42.8,0.5 42.8,11.1 28.2,11.1 28.2,12.1 42.8,12.1 42.8,23.2 44,23.2 44,0.5 	"/>
</g>
<path d="M59.7,1.5h8.8c0.8,0,1.5,0.2,2.2,0.5c0.7,0.3,1.3,0.8,1.8,1.3s0.9,1.2,1.2,1.9c0.3,0.7,0.5,1.5,0.5,2.2
	c0,0.7-0.1,1.5-0.4,2.2c-0.3,0.7-0.6,1.4-1.1,1.9c-0.5,0.6-1.1,1-1.7,1.3c-0.7,0.3-1.4,0.5-2.3,0.5h-7.5v1h6.9l6,8.8h1.4l-6.1-8.9
	c0.9-0.1,1.7-0.3,2.4-0.7s1.4-0.9,1.9-1.5c0.5-0.6,0.9-1.3,1.2-2.1c0.3-0.8,0.4-1.6,0.4-2.5c0-0.9-0.2-1.7-0.5-2.5s-0.8-1.6-1.4-2.2
	c-0.6-0.7-1.3-1.2-2.2-1.6c-0.9-0.4-1.8-0.6-2.8-0.6h-10v22.7h1.2V1.5z"/>
<g>
	<polygon points="116.4,1.5 131,1.5 131,0.5 115.2,0.5 115.2,23.2 131.3,23.2 131.3,22.2 116.4,22.2 	"/>
	<rect x="118" y="11.1" width="8.2" height="1"/>
</g>
<g>
	<polygon points="209.2,1.5 223.7,1.5 223.7,0.5 208,0.5 208,23.2 224,23.2 224,22.2 209.2,22.2 	"/>
	<rect x="210.7" y="11.1" width="8.2" height="1"/>
</g>
<polygon points="247.4,23.2 248.4,23.2 248.4,12.3 241.7,12.3 241.7,13.2 247.4,13.2 "/>
<polygon points="193.9,13.3 185,0.5 183.7,0.5 193.3,14.4 193.3,23.2 194.5,23.2 194.5,14.5 "/>
<g>
	<rect x="254.2" width="1.2" height="22.7"/>
	<polygon points="271.5,0 271.5,10.6 256.9,10.6 256.9,11.6 271.5,11.6 271.5,22.7 272.7,22.7 272.7,0 	"/>
</g>
<polygon points="195.4,13.1 204.2,0.5 202.9,0.5 194.8,12 "/>
<path d="M245.8,19.6c-0.8,0.7-1.6,1.2-2.5,1.6c-1.4,0.7-2.8,1-4.4,1c-1.4,0-2.8-0.3-4-0.9c-1.3-0.6-2.3-1.3-3.3-2.3
	c-0.9-1-1.7-2.1-2.2-3.3c-0.5-1.3-0.8-2.6-0.8-4c0-1.3,0.2-2.6,0.7-3.8s1.1-2.4,2-3.3c0.9-1,1.9-1.8,3.1-2.4
	c1.2-0.6,2.6-0.9,4.1-0.9c1.8,0,3.4,0.3,4.8,1c1.4,0.7,2.6,1.8,3.5,3.4l1-0.5c-0.4-0.7-0.9-1.4-1.4-2s-1.2-1.1-1.9-1.6
	c-0.8-0.4-1.6-0.8-2.6-1s-2.1-0.4-3.3-0.4c-1.6,0-3.1,0.3-4.5,1s-2.5,1.5-3.5,2.6c-1,1.1-1.7,2.3-2.3,3.7c-0.5,1.4-0.8,2.8-0.8,4.3
	c0,1.4,0.3,2.8,0.9,4.2c0.6,1.4,1.4,2.6,2.4,3.7s2.2,2,3.6,2.6s2.9,1,4.6,1c2.5,0,4.8-0.8,6.9-2.5V19.6z"/>
</svg>
